<svg xmlns="http://www.w3.org/2000/svg" version="1.1" xmlns:xlink="http://www.w3.org/1999/xlink" xmlns:svgjs="http://svgjs.dev/svgjs" width="2000" height="1500" viewBox="0 0 2000 1500"><rect width="2000" height="1500" fill="#9323ba"></rect><g transform="matrix(0.75,0,0,0.75,249.67638483964993,0.05154664723022506)"><svg viewBox="0 0 343 343" data-background-color="#9323ba" preserveAspectRatio="xMidYMid meet" height="1999" width="2000" xmlns="http://www.w3.org/2000/svg" xmlns:xlink="http://www.w3.org/1999/xlink"><g id="tight-bounds" transform="matrix(1,0,0,1,0.0740000000000407,0.07400000000001228)"><svg viewBox="0 0 342.85155851775386 342.85155851775386" height="342.85155851775386" width="342.85155851775386"><g><svg></svg></g><g><svg viewBox="0 0 342.85155851775386 342.85155851775386" height="342.85155851775386" width="342.85155851775386"><g><path d="M0 171.426c0-94.676 76.75-171.426 171.426-171.426 94.676 0 171.426 76.75 171.426 171.426 0 94.676-76.75 171.426-171.426 171.426-94.676 0-171.426-76.75-171.426-171.426zM171.426 339.546c92.85 0 168.12-75.27 168.12-168.12 0-92.85-75.27-168.12-168.12-168.12-92.85 0-168.12 75.27-168.12 168.12 0 92.85 75.27 168.12 168.12 168.12z" data-fill-palette-color="tertiary" fill="#f7f7ee" stroke="transparent"></path><ellipse rx="164.56874808852186" ry="164.56874808852186" cx="171.42577925887693" cy="171.42577925887693" fill="#f7f7ee" stroke="transparent" stroke-width="0" fill-opacity="1" data-fill-palette-color="tertiary"></ellipse></g><g transform="matrix(1,0,0,1,64.84655864529837,98.28288666258833)"><svg viewBox="0 0 213.1584412271571 146.2857851925772" height="146.2857851925772" width="213.1584412271571"><g><svg viewBox="0 0 213.1584412271571 146.2857851925772" height="146.2857851925772" width="213.1584412271571"><g><svg viewBox="0 0 213.1584412271571 146.2857851925772" height="146.2857851925772" width="213.1584412271571"><g transform="matrix(1,0,0,1,0,88.50590088123774)"><svg viewBox="0 0 213.1584412271571 57.77988431133947" height="57.77988431133947" width="213.1584412271571"><g id="textblocktransform"><svg viewBox="0 0 213.1584412271571 57.77988431133947" height="57.77988431133947" width="213.1584412271571" id="textblock"><g><svg viewBox="0 0 213.1584412271571 36.65811333200571" height="36.65811333200571" width="213.1584412271571"><g transform="matrix(1,0,0,1,0,0)"><svg width="213.1584412271571" viewBox="3.76 -37.7 226.84 39.02" height="36.65811333200571" data-palette-color="#9323ba"><path d="M35.3-0.15L35.3-0.15 27.88 0.98Q27.1-1.51 26.32-3.98 25.54-6.45 24.8-8.94L24.8-8.94 12.79-8.5 11.28-2 3.76-2Q4.44-10.3 5.18-18.51 5.91-26.71 6.59-34.96L6.59-34.96Q10.11-35.55 13.6-35.94 17.09-36.33 20.65-36.33L20.65-36.33Q25-36.33 29.35-36.18L29.35-36.18Q30.13-31.1 30.88-26.05 31.64-21 32.47-15.92L32.47-15.92Q33.06-11.91 33.76-8.01 34.47-4.1 35.3-0.15ZM13.72-15.33L23.1-15.58Q23.05-16.02 22.85-17.21 22.66-18.41 22.41-19.75 22.17-21.09 21.85-22.19 21.53-23.29 21.24-23.49L21.24-23.49Q21.14-23.54 20.78-23.58 20.41-23.63 20-23.68 19.58-23.73 19.19-23.73 18.8-23.73 18.65-23.73L18.65-23.73Q18.41-23.73 17.99-23.73 17.58-23.73 17.11-23.71 16.65-23.68 16.24-23.58 15.82-23.49 15.67-23.34L15.67-23.34Q15.58-23.29 15.43-22.71 15.28-22.12 15.06-21.26 14.84-20.41 14.62-19.43 14.4-18.46 14.21-17.58 14.01-16.7 13.89-16.06 13.77-15.43 13.72-15.33L13.72-15.33ZM76.46-24.17L76.46-24.17Q76.46-23.34 76.36-22.61 76.27-21.88 76.02-21.09L76.02-21.09Q75.73-20.26 74.9-19.51 74.07-18.75 73.04-18.09 72.02-17.43 70.94-16.97 69.87-16.5 69.14-16.26L69.14-16.26Q69.38-16.21 70.11-16.09 70.85-15.97 71.65-15.77 72.46-15.58 73.14-15.31 73.83-15.04 74.02-14.75L74.02-14.75Q74.36-14.16 74.58-13.31 74.8-12.45 74.9-11.5 75-10.55 75.05-9.64 75.1-8.74 75.1-8.06L75.1-8.06Q75.1-7.81 75.1-7.54 75.1-7.28 75.05-7.03L75.05-7.03Q74.95-6.54 74.36-5.74 73.78-4.93 73-4.1 72.21-3.27 71.46-2.56 70.7-1.86 70.31-1.56L70.31-1.56Q69.77-1.17 69.26-0.88 68.75-0.59 68.16-0.34L68.16-0.34Q67.72-0.15 66.28-0.05 64.84 0.05 63.23 0.12 61.62 0.2 60.2 0.22 58.79 0.24 58.3 0.24L58.3 0.24Q54.39 0.24 50.58 0.12 46.77 0 42.87-0.2L42.87-0.2Q42.97-3.66 43.02-7.1 43.06-10.55 43.06-14.06L43.06-14.06Q43.06-18.02 42.82-21.92 42.58-25.83 42.28-29.74L42.28-29.74 38.52-30.08Q38.28-32.03 38.16-33.91 38.03-35.79 37.84-37.7L37.84-37.7Q41.84-37.6 45.85-37.5 49.85-37.4 53.85-37.3L53.85-37.3Q55.56-37.26 58.2-36.99 60.84-36.72 63.6-36.28 66.35-35.84 68.82-35.21 71.29-34.57 72.7-33.79L72.7-33.79Q73.78-33.2 74.48-32.03 75.19-30.86 75.63-29.47 76.07-28.08 76.27-26.66 76.46-25.24 76.46-24.17ZM63.47-24.37L63.47-24.37Q63.47-24.85 63.43-25.61 63.38-26.37 63.23-27.15 63.08-27.93 62.84-28.61 62.6-29.3 62.25-29.74L62.25-29.74Q62.16-29.88 61.72-29.98 61.28-30.08 60.76-30.13 60.25-30.18 59.76-30.18 59.27-30.18 59.13-30.18L59.13-30.18Q56.69-30.18 54.29-29.91 51.9-29.64 49.51-29.25L49.51-29.25Q49.8-26.86 50.05-24.46 50.29-22.07 50.63-19.68L50.63-19.68Q51.22-19.68 52.93-19.78 54.64-19.87 56.56-20.02 58.49-20.17 60.15-20.39 61.81-20.61 62.3-20.9L62.3-20.9Q63.13-21.44 63.3-22.46 63.47-23.49 63.47-24.37ZM63.08-10.6L63.08-10.6Q63.08-11.33 62.89-12.08 62.69-12.84 62.11-13.33L62.11-13.33Q61.96-13.48 61.42-13.57 60.89-13.67 60.3-13.7 59.71-13.72 59.18-13.75 58.64-13.77 58.44-13.77L58.44-13.77Q56.35-13.77 54.29-13.55 52.24-13.33 50.19-13.09L50.19-13.09 50.97-6.88Q51.22-6.88 52.12-6.93 53.02-6.98 54.22-7.06 55.42-7.13 56.76-7.23 58.1-7.32 59.27-7.47 60.45-7.62 61.28-7.79 62.11-7.96 62.3-8.2L62.3-8.2Q62.74-8.74 62.91-9.33 63.08-9.91 63.08-10.6ZM125.33-8.64L125.33-8.64 124.5-0.05Q122.94 0.05 121.38 0.12 119.82 0.2 118.25 0.2L118.25 0.2Q117.42 0.2 116.06 0.15 114.69 0.1 113.22-0.02 111.76-0.15 110.44-0.37 109.12-0.59 108.34-0.93L108.34-0.93Q107.17-1.46 106.41-2.34 105.66-3.22 105.17-4.27 104.68-5.32 104.39-6.52 104.09-7.71 103.95-8.89L103.95-8.89Q103.8-10.01 103.73-11.3 103.65-12.6 103.63-13.96 103.61-15.33 103.61-16.63 103.61-17.92 103.61-19.04L103.61-19.04 103.61-20.51 100.58-20.51Q100.77-22.71 100.8-24.85 100.82-27 101.02-29.2L101.02-29.2 103.95-29.1 103.95-36.33Q106.73-35.79 109.49-35.77 112.25-35.74 115.03-35.55L115.03-35.55 114.93-28.08 119.04-27.83Q119.04-27.49 119.06-27.2 119.08-26.9 119.08-26.56L119.08-26.56Q119.08-25.2 118.86-23.9 118.64-22.61 118.3-21.29L118.3-21.29 114.74-21.29Q114.64-19.04 114.59-16.8 114.54-14.55 114.54-12.3L114.54-12.3Q114.54-11.23 114.62-10.38 114.69-9.52 115.01-8.94 115.32-8.35 116.06-8.06 116.79-7.76 118.11-7.76L118.11-7.76Q119.91-7.76 121.72-8.01 123.53-8.25 125.33-8.64ZM158.78-18.12L158.78-18.12Q152.38-17.77 146.03-17.55 139.69-17.33 133.29-17.09L133.29-17.09Q133.24-16.89 133.24-16.7 133.24-16.5 133.24-16.31L133.24-16.31Q133.24-14.65 134-13.77 134.76-12.89 135.88-12.52 137-12.16 138.37-12.11 139.74-12.06 140.91-12.06L140.91-12.06Q144.18-12.06 147.45-12.28 150.72-12.5 154.04-12.74L154.04-12.74 154.43-4.98Q151.21-4.83 148.01-4.74 144.81-4.64 141.59-4.64L141.59-4.64Q140.91-4.64 139.08-4.66 137.25-4.69 135.17-4.81 133.1-4.93 131.29-5.13 129.48-5.32 128.9-5.66L128.9-5.66Q127.38-6.54 126.53-7.91 125.67-9.28 125.21-10.89 124.75-12.5 124.57-14.18 124.4-15.87 124.36-17.43L124.36-17.43Q124.31-17.68 124.33-17.94 124.36-18.21 124.36-18.46L124.36-18.46Q124.36-21.04 124.92-23.27 125.48-25.49 126.99-27.59L126.99-27.59Q128.02-29.05 130.02-30.03 132.02-31.01 134.37-31.57 136.71-32.13 139.05-32.35 141.4-32.57 143.11-32.57L143.11-32.57Q144.62-32.57 146.82-32.3 149.01-32.03 151.19-31.4 153.36-30.76 155.12-29.76 156.87-28.76 157.51-27.29L157.51-27.29Q157.61-27 157.73-26.29 157.85-25.59 158-24.68 158.14-23.78 158.27-22.75 158.39-21.73 158.49-20.8 158.58-19.87 158.66-19.14 158.73-18.41 158.78-18.12ZM135.83-21.14L152.14-21.68Q151.85-23.83 151.04-25.07 150.23-26.32 149.04-26.93 147.84-27.54 146.3-27.71 144.77-27.88 143.01-27.88L143.01-27.88Q142.42-27.88 141.54-27.86 140.66-27.83 139.78-27.71 138.91-27.59 138.12-27.34 137.34-27.1 136.9-26.66L136.9-26.66Q136.56-26.37 136.34-25.85 136.12-25.34 135.98-24.76 135.83-24.17 135.76-23.61 135.68-23.05 135.68-22.66L135.68-22.66Q135.68-21.88 135.83-21.14L135.83-21.14ZM194.03-25.73L194.03-25.73Q194.03-23.49 193.44-21.39L193.44-21.39Q193.1-21.34 191.42-21.26 189.73-21.19 187.41-21.07 185.09-20.95 182.43-20.78 179.77-20.61 177.5-20.41 175.23-20.21 173.64-20 172.06-19.78 171.86-19.58L171.86-19.58Q171.08-18.9 170.69-17.92 170.3-16.94 170.3-15.97L170.3-15.97Q170.3-15.38 170.42-15.06 170.54-14.75 170.84-14.36L170.84-14.36Q170.98-14.21 171.86-14.11 172.74-14.01 173.82-13.96 174.89-13.92 175.82-13.89 176.75-13.87 176.89-13.87L176.89-13.87Q180.41-13.87 183.92-14.01 187.44-14.16 190.95-14.4L190.95-14.4 191.34-6.01Q186.46-5.62 181.55-5.25 176.65-4.88 171.72-4.88L171.72-4.88Q171.47-4.88 171.01-4.88 170.54-4.88 170.01-4.91 169.47-4.93 168.98-4.98 168.49-5.03 168.3-5.08L168.3-5.08Q167.27-5.37 166.27-5.74 165.27-6.1 164.39-6.67 163.51-7.23 162.85-8.01 162.19-8.79 161.9-9.91L161.9-9.91Q161.71-10.64 161.58-11.84 161.46-13.04 161.41-14.31 161.36-15.58 161.34-16.8 161.32-18.02 161.32-18.85L161.32-18.85Q161.32-20.75 161.36-22.41 161.41-24.07 161.9-25.46 162.39-26.86 163.49-27.95 164.59-29.05 166.64-29.88L166.64-29.88Q167.57-30.27 169.42-30.49 171.28-30.71 173.3-30.83 175.33-30.96 177.18-31.01 179.04-31.05 180.07-31.05L180.07-31.05Q183.48-31.05 186.88-30.91 190.27-30.76 193.69-30.52L193.69-30.52Q193.84-29.3 193.93-28.1 194.03-26.9 194.03-25.73ZM230.6-19.04L230.6-19.04Q230.6-17.24 230.38-15.41 230.16-13.57 229.92-11.77L229.92-11.77Q229.53-8.59 229.04-5.49 228.55-2.39 228.06 0.78L228.06 0.78Q225.67 0.83 223.37 0.98 221.08 1.12 218.74 1.32L218.74 1.32Q218.74-2.25 218.74-5.74 218.74-9.23 218.59-12.74L218.59-12.74Q218.59-13.43 218.56-14.5 218.54-15.58 218.34-16.26L218.34-16.26Q218.05-17.38 217.61-17.8 217.17-18.21 215.9-18.21L215.9-18.21Q215.02-18.21 213.85-18.02 212.68-17.82 211.46-17.53 210.24-17.24 209.14-16.87 208.04-16.5 207.31-16.11L207.31-16.11Q206.92-12.16 206.36-8.25 205.8-4.35 205.65-0.34L205.65-0.34 198.76-0.68Q198.23-9.47 197.74-18.19 197.25-26.9 196.81-35.69L196.81-35.69 207.55-36.38Q207.46-33.15 207.36-29.96 207.26-26.76 207.16-23.54L207.16-23.54Q208.09-24.32 209.26-24.73 210.43-25.15 211.68-25.29 212.92-25.44 214.19-25.44 215.46-25.44 216.64-25.44L216.64-25.44Q218.39-25.44 220.61-25.32 222.84-25.2 224.86-24.63 226.89-24.07 228.45-22.85 230.01-21.63 230.55-19.43L230.55-19.43Q230.6-19.34 230.6-19.24 230.6-19.14 230.6-19.04Z" opacity="1" transform="matrix(1,0,0,1,0,0)" fill="#9323ba" class="wordmark-text-0" data-fill-palette-color="quaternary" id="text-0"></path></svg></g></svg></g><g transform="matrix(1,0,0,1,0,45.31221409497229)"><svg viewBox="0 0 213.1584412271571 12.46767021636718" height="12.46767021636718" width="213.1584412271571"><g transform="matrix(1,0,0,1,0,0)"><svg width="213.1584412271571" viewBox="1.7 -39.8 688.15 40.25" height="12.46767021636718" data-palette-color="#9323ba"><path d="M1.7-34.85L25.3-34.85 25.3-31.15 15.8-31.15 15.8 0 11.25 0 11.25-31.15 1.7-31.15 1.7-34.85ZM55.9-14.75Q55.9-13.45 55.75-12L55.75-12 33.85-12Q34.1-7.95 36.63-5.68 39.15-3.4 42.75-3.4L42.75-3.4Q45.7-3.4 47.68-4.78 49.65-6.15 50.45-8.45L50.45-8.45 55.35-8.45Q54.25-4.5 50.95-2.02 47.65 0.45 42.75 0.45L42.75 0.45Q38.85 0.45 35.78-1.3 32.7-3.05 30.95-6.28 29.2-9.5 29.2-13.75L29.2-13.75Q29.2-18 30.9-21.2 32.6-24.4 35.68-26.13 38.75-27.85 42.75-27.85L42.75-27.85Q46.65-27.85 49.65-26.15 52.65-24.45 54.28-21.48 55.9-18.5 55.9-14.75L55.9-14.75ZM51.2-15.7Q51.2-18.3 50.05-20.18 48.9-22.05 46.93-23.03 44.95-24 42.55-24L42.55-24Q39.1-24 36.68-21.8 34.25-19.6 33.9-15.7L33.9-15.7 51.2-15.7ZM60.2-13.75Q60.2-18 61.9-21.18 63.6-24.35 66.63-26.1 69.65-27.85 73.55-27.85L73.55-27.85Q78.6-27.85 81.88-25.4 85.15-22.95 86.2-18.6L86.2-18.6 81.3-18.6Q80.6-21.1 78.58-22.55 76.55-24 73.55-24L73.55-24Q69.65-24 67.25-21.33 64.85-18.65 64.85-13.75L64.85-13.75Q64.85-8.8 67.25-6.1 69.65-3.4 73.55-3.4L73.55-3.4Q76.55-3.4 78.55-4.8 80.55-6.2 81.3-8.8L81.3-8.8 86.2-8.8Q85.1-4.6 81.8-2.08 78.5 0.45 73.55 0.45L73.55 0.45Q69.65 0.45 66.63-1.3 63.6-3.05 61.9-6.25 60.2-9.45 60.2-13.75L60.2-13.75ZM105.85-27.9Q108.95-27.9 111.45-26.58 113.95-25.25 115.38-22.6 116.8-19.95 116.8-16.15L116.8-16.15 116.8 0 112.3 0 112.3-15.5Q112.3-19.6 110.25-21.78 108.2-23.95 104.65-23.95L104.65-23.95Q101.05-23.95 98.93-21.7 96.8-19.45 96.8-15.15L96.8-15.15 96.8 0 92.25 0 92.25-37 96.8-37 96.8-23.5Q98.15-25.6 100.53-26.75 102.9-27.9 105.85-27.9L105.85-27.9ZM148.75-27.4L148.75-23.65 143-23.65 143 0 138.45 0 138.45-23.65 134.9-23.65 134.9-27.4 138.45-27.4 138.45-29.35Q138.45-33.95 140.82-36.08 143.2-38.2 148.45-38.2L148.45-38.2 148.45-34.4Q145.45-34.4 144.22-33.23 143-32.05 143-29.35L143-29.35 143-27.4 148.75-27.4ZM166 0.45Q162.15 0.45 159.02-1.3 155.9-3.05 154.13-6.28 152.35-9.5 152.35-13.75L152.35-13.75Q152.35-17.95 154.17-21.18 156-24.4 159.15-26.13 162.3-27.85 166.2-27.85L166.2-27.85Q170.1-27.85 173.25-26.13 176.4-24.4 178.22-21.2 180.05-18 180.05-13.75L180.05-13.75Q180.05-9.5 178.17-6.28 176.3-3.05 173.1-1.3 169.9 0.45 166 0.45L166 0.45ZM166-3.55Q168.45-3.55 170.6-4.7 172.75-5.85 174.07-8.15 175.4-10.45 175.4-13.75L175.4-13.75Q175.4-17.05 174.1-19.35 172.8-21.65 170.7-22.78 168.6-23.9 166.15-23.9L166.15-23.9Q163.65-23.9 161.57-22.78 159.5-21.65 158.25-19.35 157-17.05 157-13.75L157-13.75Q157-10.4 158.22-8.1 159.45-5.8 161.5-4.67 163.55-3.55 166-3.55L166-3.55ZM190.6-22.95Q191.8-25.3 194.02-26.6 196.25-27.9 199.45-27.9L199.45-27.9 199.45-23.2 198.25-23.2Q190.6-23.2 190.6-14.9L190.6-14.9 190.6 0 186.05 0 186.05-27.4 190.6-27.4 190.6-22.95ZM235.5-17.95Q237.4-17.65 238.97-16.4 240.55-15.15 241.47-13.3 242.4-11.45 242.4-9.35L242.4-9.35Q242.4-6.7 241.05-4.58 239.7-2.45 237.13-1.23 234.55 0 231.05 0L231.05 0 218.05 0 218.05-34.85 230.55-34.85Q234.1-34.85 236.6-33.68 239.1-32.5 240.35-30.5 241.6-28.5 241.6-26L241.6-26Q241.6-22.9 239.92-20.88 238.25-18.85 235.5-17.95L235.5-17.95ZM222.6-31.1L222.6-19.8 230.25-19.8Q233.45-19.8 235.2-21.3 236.95-22.8 236.95-25.45L236.95-25.45Q236.95-28.1 235.2-29.6 233.45-31.1 230.15-31.1L230.15-31.1 222.6-31.1ZM230.65-3.75Q234.05-3.75 235.95-5.35 237.85-6.95 237.85-9.8L237.85-9.8Q237.85-12.7 235.85-14.38 233.85-16.05 230.5-16.05L230.5-16.05 222.6-16.05 222.6-3.75 230.65-3.75ZM262.3-27.9Q265.4-27.9 267.9-26.58 270.4-25.25 271.82-22.6 273.25-19.95 273.25-16.15L273.25-16.15 273.25 0 268.75 0 268.75-15.5Q268.75-19.6 266.7-21.78 264.65-23.95 261.1-23.95L261.1-23.95Q257.5-23.95 255.38-21.7 253.25-19.45 253.25-15.15L253.25-15.15 253.25 0 248.7 0 248.7-37 253.25-37 253.25-23.5Q254.6-25.6 256.98-26.75 259.35-27.9 262.3-27.9L262.3-27.9ZM279-13.8Q279-18 280.7-21.18 282.4-24.35 285.38-26.1 288.35-27.85 292-27.85L292-27.85Q295.6-27.85 298.25-26.3 300.9-24.75 302.2-22.4L302.2-22.4 302.2-27.4 306.8-27.4 306.8 0 302.2 0 302.2-5.1Q300.85-2.7 298.18-1.13 295.5 0.45 291.95 0.45L291.95 0.45Q288.3 0.45 285.35-1.35 282.4-3.15 280.7-6.4 279-9.65 279-13.8L279-13.8ZM302.2-13.75Q302.2-16.85 300.95-19.15 299.7-21.45 297.58-22.68 295.45-23.9 292.9-23.9L292.9-23.9Q290.35-23.9 288.25-22.7 286.15-21.5 284.9-19.2 283.65-16.9 283.65-13.8L283.65-13.8Q283.65-10.65 284.9-8.33 286.15-6 288.25-4.78 290.35-3.55 292.9-3.55L292.9-3.55Q295.45-3.55 297.58-4.78 299.7-6 300.95-8.33 302.2-10.65 302.2-13.75L302.2-13.75ZM319.05-22.95Q320.25-25.3 322.48-26.6 324.7-27.9 327.9-27.9L327.9-27.9 327.9-23.2 326.7-23.2Q319.05-23.2 319.05-14.9L319.05-14.9 319.05 0 314.5 0 314.5-27.4 319.05-27.4 319.05-22.95ZM331.45-13.8Q331.45-18 333.15-21.18 334.85-24.35 337.82-26.1 340.8-27.85 344.45-27.85L344.45-27.85Q348.05-27.85 350.7-26.3 353.35-24.75 354.65-22.4L354.65-22.4 354.65-27.4 359.25-27.4 359.25 0 354.65 0 354.65-5.1Q353.3-2.7 350.63-1.13 347.95 0.45 344.4 0.45L344.4 0.45Q340.75 0.45 337.8-1.35 334.85-3.15 333.15-6.4 331.45-9.65 331.45-13.8L331.45-13.8ZM354.65-13.75Q354.65-16.85 353.4-19.15 352.15-21.45 350.03-22.68 347.9-23.9 345.35-23.9L345.35-23.9Q342.8-23.9 340.7-22.7 338.6-21.5 337.35-19.2 336.1-16.9 336.1-13.8L336.1-13.8Q336.1-10.65 337.35-8.33 338.6-6 340.7-4.78 342.8-3.55 345.35-3.55L345.35-3.55Q347.9-3.55 350.03-4.78 352.15-6 353.4-8.33 354.65-10.65 354.65-13.75L354.65-13.75ZM379.65-23.65L372.5-23.65 372.5-7.5Q372.5-5.5 373.35-4.67 374.2-3.85 376.3-3.85L376.3-3.85 379.65-3.85 379.65 0 375.55 0Q371.75 0 369.85-1.75 367.95-3.5 367.95-7.5L367.95-7.5 367.95-23.65 364.4-23.65 364.4-27.4 367.95-27.4 367.95-34.3 372.5-34.3 372.5-27.4 379.65-27.4 379.65-23.65ZM383.05-39.8L387.45-39.8 386.85-29.85 383.7-29.85 383.05-39.8ZM402.8 0.45Q399.65 0.45 397.15-0.63 394.65-1.7 393.2-3.63 391.75-5.55 391.6-8.05L391.6-8.05 396.3-8.05Q396.5-6 398.23-4.7 399.95-3.4 402.75-3.4L402.75-3.4Q405.35-3.4 406.85-4.55 408.35-5.7 408.35-7.45L408.35-7.45Q408.35-9.25 406.75-10.13 405.15-11 401.8-11.85L401.8-11.85Q398.75-12.65 396.82-13.48 394.9-14.3 393.52-15.93 392.15-17.55 392.15-20.2L392.15-20.2Q392.15-22.3 393.4-24.05 394.65-25.8 396.95-26.83 399.25-27.85 402.2-27.85L402.2-27.85Q406.75-27.85 409.55-25.55 412.35-23.25 412.55-19.25L412.55-19.25 408-19.25Q407.85-21.4 406.27-22.7 404.7-24 402.05-24L402.05-24Q399.6-24 398.15-22.95 396.7-21.9 396.7-20.2L396.7-20.2Q396.7-18.85 397.57-17.98 398.45-17.1 399.77-16.57 401.1-16.05 403.45-15.4L403.45-15.4Q406.4-14.6 408.25-13.83 410.1-13.05 411.43-11.5 412.75-9.95 412.8-7.45L412.8-7.45Q412.8-5.2 411.55-3.4 410.3-1.6 408.02-0.58 405.75 0.45 402.8 0.45L402.8 0.45ZM430.4-34.85L454-34.85 454-31.15 444.5-31.15 444.5 0 439.95 0 439.95-31.15 430.4-31.15 430.4-34.85ZM471.55 0.45Q467.7 0.45 464.58-1.3 461.45-3.05 459.68-6.28 457.9-9.5 457.9-13.75L457.9-13.75Q457.9-17.95 459.73-21.18 461.55-24.4 464.7-26.13 467.85-27.85 471.75-27.85L471.75-27.85Q475.65-27.85 478.8-26.13 481.95-24.4 483.78-21.2 485.6-18 485.6-13.75L485.6-13.75Q485.6-9.5 483.73-6.28 481.85-3.05 478.65-1.3 475.45 0.45 471.55 0.45L471.55 0.45ZM471.55-3.55Q474-3.55 476.15-4.7 478.3-5.85 479.63-8.15 480.95-10.45 480.95-13.75L480.95-13.75Q480.95-17.05 479.65-19.35 478.35-21.65 476.25-22.78 474.15-23.9 471.7-23.9L471.7-23.9Q469.2-23.9 467.13-22.78 465.05-21.65 463.8-19.35 462.55-17.05 462.55-13.75L462.55-13.75Q462.55-10.4 463.78-8.1 465-5.8 467.05-4.67 469.1-3.55 471.55-3.55L471.55-3.55ZM524.55-27.9Q527.75-27.9 530.25-26.58 532.75-25.25 534.2-22.6 535.65-19.95 535.65-16.15L535.65-16.15 535.65 0 531.15 0 531.15-15.5Q531.15-19.6 529.13-21.78 527.1-23.95 523.65-23.95L523.65-23.95Q520.1-23.95 518-21.68 515.9-19.4 515.9-15.1L515.9-15.1 515.9 0 511.4 0 511.4-15.5Q511.4-19.6 509.38-21.78 507.35-23.95 503.9-23.95L503.9-23.95Q500.35-23.95 498.25-21.68 496.15-19.4 496.15-15.1L496.15-15.1 496.15 0 491.6 0 491.6-27.4 496.15-27.4 496.15-23.45Q497.5-25.6 499.78-26.75 502.05-27.9 504.8-27.9L504.8-27.9Q508.25-27.9 510.9-26.35 513.55-24.8 514.85-21.8L514.85-21.8Q516-24.7 518.65-26.3 521.3-27.9 524.55-27.9L524.55-27.9ZM555.05 0.45Q551.2 0.45 548.08-1.3 544.95-3.05 543.17-6.28 541.4-9.5 541.4-13.75L541.4-13.75Q541.4-17.95 543.23-21.18 545.05-24.4 548.2-26.13 551.35-27.85 555.25-27.85L555.25-27.85Q559.15-27.85 562.3-26.13 565.45-24.4 567.27-21.2 569.1-18 569.1-13.75L569.1-13.75Q569.1-9.5 567.23-6.28 565.35-3.05 562.15-1.3 558.95 0.45 555.05 0.45L555.05 0.45ZM555.05-3.55Q557.5-3.55 559.65-4.7 561.8-5.85 563.13-8.15 564.45-10.45 564.45-13.75L564.45-13.75Q564.45-17.05 563.15-19.35 561.85-21.65 559.75-22.78 557.65-23.9 555.2-23.9L555.2-23.9Q552.7-23.9 550.63-22.78 548.55-21.65 547.3-19.35 546.05-17.05 546.05-13.75L546.05-13.75Q546.05-10.4 547.27-8.1 548.5-5.8 550.55-4.67 552.6-3.55 555.05-3.55L555.05-3.55ZM579.65-22.95Q580.85-25.3 583.08-26.6 585.3-27.9 588.5-27.9L588.5-27.9 588.5-23.2 587.3-23.2Q579.65-23.2 579.65-14.9L579.65-14.9 579.65 0 575.1 0 575.1-27.4 579.65-27.4 579.65-22.95ZM598.3-22.95Q599.5-25.3 601.73-26.6 603.95-27.9 607.15-27.9L607.15-27.9 607.15-23.2 605.95-23.2Q598.3-23.2 598.3-14.9L598.3-14.9 598.3 0 593.75 0 593.75-27.4 598.3-27.4 598.3-22.95ZM624.35 0.45Q620.5 0.45 617.38-1.3 614.25-3.05 612.47-6.28 610.7-9.5 610.7-13.75L610.7-13.75Q610.7-17.95 612.52-21.18 614.35-24.4 617.5-26.13 620.65-27.85 624.55-27.85L624.55-27.85Q628.45-27.85 631.6-26.13 634.75-24.4 636.57-21.2 638.4-18 638.4-13.75L638.4-13.75Q638.4-9.5 636.52-6.28 634.65-3.05 631.45-1.3 628.25 0.45 624.35 0.45L624.35 0.45ZM624.35-3.55Q626.8-3.55 628.95-4.7 631.1-5.85 632.42-8.15 633.75-10.45 633.75-13.75L633.75-13.75Q633.75-17.05 632.45-19.35 631.15-21.65 629.05-22.78 626.95-23.9 624.5-23.9L624.5-23.9Q622-23.9 619.92-22.78 617.85-21.65 616.6-19.35 615.35-17.05 615.35-13.75L615.35-13.75Q615.35-10.4 616.57-8.1 617.8-5.8 619.85-4.67 621.9-3.55 624.35-3.55L624.35-3.55ZM676.4-27.4L680.9-27.4 672.35 0 667.65 0 661.05-21.75 654.45 0 649.75 0 641.15-27.4 645.8-27.4 652.1-4.4 658.9-27.4 663.55-27.4 670.2-4.35 676.4-27.4ZM686.85 0.3Q685.55 0.3 684.65-0.6 683.75-1.5 683.75-2.8L683.75-2.8Q683.75-4.1 684.65-5 685.55-5.9 686.85-5.9L686.85-5.9Q688.1-5.9 688.97-5 689.85-4.1 689.85-2.8L689.85-2.8Q689.85-1.5 688.97-0.6 688.1 0.3 686.85 0.3L686.85 0.3Z" opacity="1" transform="matrix(1,0,0,1,0,0)" fill="#9323ba" class="slogan-text-1" data-fill-palette-color="quaternary" id="text-1"></path></svg></g></svg></g></svg></g></svg></g><g transform="matrix(1,0,0,1,57.46429211236364,0)"><svg viewBox="0 0 98.22985700242984 79.85180011827116" height="79.85180011827116" width="98.22985700242984"><g><svg xmlns="http://www.w3.org/2000/svg" xmlns:xlink="http://www.w3.org/1999/xlink" version="1.1" x="0" y="0" viewBox="6.67074567100769 14.509837495441754 88.21563481183142 71.71116250455825" enable-background="new 0 0 100 100" xml:space="preserve" height="79.85180011827116" width="98.22985700242984" class="icon-icon-0" data-fill-palette-color="quaternary" id="icon-0"><g fill="#9323ba" data-fill-palette-color="quaternary"><path fill="#9323ba" d="M67.539 22.815H20.016c-1.04 0-1.884-0.844-1.884-1.885 0-1.041 0.844-1.885 1.884-1.885h47.523c1.04 0 1.885 0.844 1.885 1.885C69.424 21.972 68.579 22.815 67.539 22.815z" data-fill-palette-color="quaternary"></path></g><g fill="#9323ba" data-fill-palette-color="quaternary"><path fill="#9323ba" d="M38.493 34.586H20.016c-1.04 0-1.884-0.844-1.884-1.885 0-1.042 0.844-1.886 1.884-1.886h18.477c1.042 0 1.885 0.844 1.885 1.886C40.378 33.742 39.534 34.586 38.493 34.586z" data-fill-palette-color="quaternary"></path></g><g fill="#9323ba" data-fill-palette-color="quaternary"><path fill="#9323ba" d="M54.605 58.169h-34.59c-1.04 0-1.884-0.843-1.884-1.885 0-1.04 0.844-1.885 1.884-1.885h34.59c1.042 0 1.887 0.845 1.887 1.885C56.492 57.326 55.647 58.169 54.605 58.169z" data-fill-palette-color="quaternary"></path></g><g fill="#9323ba" data-fill-palette-color="quaternary"><path fill="#9323ba" d="M83.118 58.169H63.503c-1.04 0-1.884-0.843-1.884-1.885 0-1.04 0.844-1.885 1.884-1.885h19.615c1.041 0 1.885 0.845 1.885 1.885C85.003 57.326 84.159 58.169 83.118 58.169z" data-fill-palette-color="quaternary"></path></g><g fill="#9323ba" data-fill-palette-color="quaternary"><path fill="#9323ba" d="M82.701 46.36H20.016c-1.04 0-1.884-0.844-1.884-1.885 0-1.042 0.844-1.884 1.884-1.884h62.686c1.041 0 1.886 0.843 1.886 1.884C84.587 45.517 83.742 46.36 82.701 46.36z" data-fill-palette-color="quaternary"></path></g><g fill="#9323ba" data-fill-palette-color="quaternary"><path fill="#9323ba" d="M12.909 27.367c-0.496 0-0.991-0.194-1.361-0.582l-4.355-4.552c-0.694-0.726-0.697-1.87-0.005-2.6l4.297-4.535c0.717-0.756 1.91-0.787 2.666-0.071 0.754 0.716 0.788 1.909 0.072 2.665l-3.064 3.232 3.115 3.254c0.718 0.753 0.691 1.946-0.06 2.666C13.847 27.193 13.378 27.367 12.909 27.367z" data-fill-palette-color="quaternary"></path></g><g fill="#9323ba" data-fill-palette-color="quaternary"><path fill="#9323ba" d="M12.909 74.438c-0.496 0-0.991-0.193-1.361-0.581l-4.355-4.552c-0.694-0.729-0.697-1.872-0.005-2.602l4.297-4.531c0.718-0.755 1.91-0.787 2.666-0.071 0.754 0.717 0.787 1.907 0.072 2.663l-3.064 3.23 3.115 3.254c0.718 0.754 0.691 1.946-0.06 2.664C13.847 74.264 13.378 74.438 12.909 74.438z" data-fill-palette-color="quaternary"></path></g><g fill="#9323ba" data-fill-palette-color="quaternary"><path fill="#9323ba" d="M71.189 86.221c-0.466 0-0.933-0.172-1.297-0.518-0.756-0.715-0.787-1.909-0.071-2.665l3.063-3.229-3.113-3.258c-0.721-0.752-0.693-1.944 0.06-2.665 0.752-0.719 1.944-0.692 2.665 0.061l4.354 4.555c0.694 0.726 0.696 1.869 0.006 2.599l-4.299 4.534C72.187 86.022 71.688 86.221 71.189 86.221z" data-fill-palette-color="quaternary"></path></g><g fill="#9323ba" data-fill-palette-color="quaternary"><path fill="#9323ba" d="M88.704 62.324c-0.466 0-0.932-0.171-1.297-0.517-0.756-0.716-0.788-1.909-0.072-2.665l3.063-3.232-3.112-3.253c-0.72-0.752-0.692-1.945 0.059-2.666 0.751-0.718 1.945-0.693 2.665 0.06l4.354 4.551c0.694 0.725 0.697 1.869 0.006 2.599l-4.297 4.534C89.702 62.128 89.203 62.324 88.704 62.324z" data-fill-palette-color="quaternary"></path></g><g fill="#9323ba" data-fill-palette-color="quaternary"><path fill="#9323ba" d="M44.114 69.901H20.016c-1.04 0-1.884-0.842-1.884-1.885 0-1.04 0.844-1.884 1.884-1.884h24.098c1.041 0 1.885 0.844 1.885 1.884C45.999 69.06 45.154 69.901 44.114 69.901z" data-fill-palette-color="quaternary"></path></g><g fill="#9323ba" data-fill-palette-color="quaternary"><path fill="#9323ba" d="M82.701 69.895H52.978c-1.041 0-1.885-0.844-1.885-1.884 0-1.044 0.844-1.886 1.885-1.886h29.724c1.041 0 1.886 0.842 1.886 1.886C84.587 69.051 83.742 69.895 82.701 69.895z" data-fill-palette-color="quaternary"></path></g><g fill="#9323ba" data-fill-palette-color="quaternary"><path fill="#9323ba" d="M65.816 81.679H20.016c-1.04 0-1.884-0.845-1.884-1.886 0-1.042 0.844-1.886 1.884-1.886h45.801c1.042 0 1.886 0.844 1.886 1.886C67.702 80.834 66.858 81.679 65.816 81.679z" data-fill-palette-color="quaternary"></path></g></svg></g></svg></g><g></g></svg></g></svg></g></svg></g></svg></g><defs></defs></svg><rect width="342.85155851775386" height="342.85155851775386" fill="none" stroke="none" visibility="hidden"></rect></g></svg></g></svg>