<svg xmlns="http://www.w3.org/2000/svg" version="1.1" xmlns:xlink="http://www.w3.org/1999/xlink" xmlns:svgjs="http://svgjs.dev/svgjs" width="2000" height="1999" viewBox="0 0 2000 1999"><g transform="matrix(1,0,0,1,-0.431486880466764,-0.4312711370263287)"><svg viewBox="0 0 343 343" data-background-color="#9323ba" preserveAspectRatio="xMidYMid meet" height="1999" width="2000" xmlns="http://www.w3.org/2000/svg" xmlns:xlink="http://www.w3.org/1999/xlink"><g id="tight-bounds" transform="matrix(1,0,0,1,0.0740000000000407,0.07400000000001228)"><svg viewBox="0 0 342.85155851775386 342.85155851775386" height="342.85155851775386" width="342.85155851775386"><g><svg></svg></g><g><svg viewBox="0 0 342.85155851775386 342.85155851775386" height="342.85155851775386" width="342.85155851775386"><g><path d="M0 171.426c0-94.676 76.75-171.426 171.426-171.426 94.676 0 171.426 76.75 171.426 171.426 0 94.676-76.75 171.426-171.426 171.426-94.676 0-171.426-76.75-171.426-171.426zM171.426 338.232c92.125 0 166.806-74.682 166.806-166.806 0-92.125-74.682-166.806-166.806-166.806-92.125 0-166.806 74.682-166.806 166.806 0 92.125 74.682 166.806 166.806 166.806z" data-fill-palette-color="tertiary" fill="#f7f7ee" stroke="transparent"></path><ellipse rx="164.56874808852186" ry="164.56874808852186" cx="171.42577925887693" cy="171.42577925887693" fill="#f7f7ee" stroke="transparent" stroke-width="0" fill-opacity="1" data-fill-palette-color="tertiary"></ellipse></g><g transform="matrix(1,0,0,1,64.84655864529837,82.64855094333089)"><svg viewBox="0 0 213.1584412271571 177.55445663109208" height="177.55445663109208" width="213.1584412271571"><g><svg viewBox="0 0 213.1584412271571 177.55445663109208" height="177.55445663109208" width="213.1584412271571"><g><svg viewBox="0 0 213.1584412271571 177.55445663109208" height="177.55445663109208" width="213.1584412271571"><g transform="matrix(1,0,0,1,0,94.99604672720028)"><svg viewBox="0 0 213.1584412271571 82.5584099038918" height="82.5584099038918" width="213.1584412271571"><g id="textblocktransform"><svg viewBox="0 0 213.1584412271571 82.5584099038918" height="82.5584099038918" width="213.1584412271571" id="textblock"><g><svg viewBox="0 0 213.1584412271571 51.22587473522662" height="51.22587473522662" width="213.1584412271571"><g transform="matrix(1,0,0,1,0,0)"><svg width="213.1584412271571" viewBox="3.76 -37.74 184.07000000000002 44.230000000000004" height="51.22587473522662" data-palette-color="#9323ba"><path d="M44.97-1.37L44.97 0.83Q44.04 0.78 43.16 0.68L43.16 0.68Q42.43 0.59 41.72 0.54 41.02 0.49 40.67 0.49L40.67 0.49Q38.77 0.49 36.87 0.56 34.96 0.63 33.11 0.83L33.11 0.83Q33.15-1.22 33.18-3.2 33.2-5.18 33.2-7.23L33.2-7.23Q33.2-10.89 33.08-14.5 32.96-18.12 32.86-21.73L32.86-21.73 22.61 1.46Q20.36-4.64 17.8-10.52 15.23-16.41 12.45-22.27L12.45-22.27 13.23 1.86Q12.7 1.86 12.13 1.83 11.57 1.81 10.99 1.81L10.99 1.81Q9.13 1.81 7.35 1.95 5.57 2.1 3.76 2.25L3.76 2.25Q4-2.29 4.25-6.79 4.49-11.28 4.49-15.82L4.49-15.82Q4.49-21.14 4.42-26.42 4.35-31.69 4.3-37.01L4.3-37.01Q7.81-37.01 11.16-37.21 14.5-37.4 18.02-37.74L18.02-37.74Q19.19-33.84 20.43-30 21.68-26.17 23.1-22.36L23.1-22.36Q24.61-25.98 26.54-29.44 28.47-32.91 30.47-36.33L30.47-36.33Q33.79-36.43 37.04-36.52 40.28-36.62 43.6-36.67L43.6-36.67Q43.75-32.28 43.97-27.98 44.19-23.68 44.38-19.29L44.38-19.29Q44.53-15.82 44.65-12.35 44.78-8.89 44.87-5.47L44.87-5.47 44.97-1.37ZM59.52-32.67L59.52-32.67Q59.52-31.69 59.1-30.83 58.69-29.98 57.98-29.35 57.27-28.71 56.39-28.34 55.52-27.98 54.64-27.98L54.64-27.98Q53.66-27.98 52.81-28.42 51.95-28.86 51.32-29.54 50.68-30.22 50.34-31.13 50-32.03 50-32.96L50-32.96Q50-33.89 50.36-34.69 50.73-35.5 51.34-36.08 51.95-36.67 52.76-37.01 53.56-37.35 54.49-37.35L54.49-37.35Q55.42-37.35 56.32-36.99 57.22-36.62 57.93-35.96 58.64-35.3 59.08-34.45 59.52-33.59 59.52-32.67ZM61.52-24.37L61.52-24.37Q61.28-21.78 61.13-19.24 60.98-16.7 60.84-14.16L60.84-14.16Q60.64-11.18 60.18-8.25 59.71-5.32 59.13-2.39L59.13-2.39 51.66-1.61Q51.66-3.17 51.68-4.69 51.71-6.2 51.71-7.76L51.71-7.76Q51.71-11.77 51.56-15.77 51.41-19.78 51.27-23.78L51.27-23.78Q53.85-23.88 56.37-24.07 58.88-24.27 61.52-24.37ZM66.55-36.52L77.44-37.55Q77.05-32.81 76.68-28.13 76.31-23.44 76.07-18.7L76.07-18.7Q75.83-14.4 75.56-10.18 75.29-5.96 75.04-1.66L75.04-1.66 67.57-1.27Q67.57-5.71 67.6-10.08 67.62-14.45 67.52-18.9L67.52-18.9Q67.43-23.34 67.13-27.71 66.84-32.08 66.55-36.52L66.55-36.52ZM114.89-26.9L114.89-26.9 102.34-17.82Q102.48-17.24 102.92-15.94 103.36-14.65 103.9-13.26 104.44-11.87 105.05-10.67 105.66-9.47 106.19-9.13L106.19-9.13Q106.54-8.89 107.07-8.74 107.61-8.59 108.17-8.5 108.73-8.4 109.29-8.37 109.86-8.35 110.25-8.35L110.25-8.35Q110.93-8.35 111.66-8.4 112.39-8.45 113.08-8.54L113.08-8.54Q112.98-7.91 112.93-7.25 112.88-6.59 112.88-5.91L112.88-5.91Q112.88-4.74 112.93-3.56 112.98-2.39 112.98-1.27L112.98-1.27Q112.64-1.22 111.78-1.15 110.93-1.07 109.83-1 108.73-0.93 107.51-0.83 106.29-0.73 105.24-0.66 104.19-0.59 103.43-0.59 102.68-0.59 102.48-0.68L102.48-0.68Q101.65-1.07 100.87-1.51 100.09-1.95 99.55-2.73L99.55-2.73Q99.31-3.08 98.75-4.59 98.19-6.1 97.58-7.91 96.97-9.72 96.45-11.28 95.94-12.84 95.79-13.28L95.79-13.28 91.11-10.25 91.11-1.76 81.44-0.93Q81.73-7.76 82.07-14.53 82.41-21.29 82.41-28.17L82.41-28.17Q82.41-30.27 82.39-32.32 82.37-34.38 82.32-36.52L82.32-36.52Q84.32-36.13 86.3-36.04 88.27-35.94 90.28-35.74L90.28-35.74 90.28-17.48Q94.08-19.82 97.72-22.27 101.36-24.71 104.78-27.64L104.78-27.64Q107.37-27.34 109.83-27.2 112.3-27.05 114.89-26.9ZM123.92-32.67L123.92-32.67Q123.92-31.69 123.5-30.83 123.09-29.98 122.38-29.35 121.67-28.71 120.79-28.34 119.91-27.98 119.03-27.98L119.03-27.98Q118.06-27.98 117.2-28.42 116.35-28.86 115.71-29.54 115.08-30.22 114.74-31.13 114.39-32.03 114.39-32.96L114.39-32.96Q114.39-33.89 114.76-34.69 115.13-35.5 115.74-36.08 116.35-36.67 117.15-37.01 117.96-37.35 118.89-37.35L118.89-37.35Q119.81-37.35 120.72-36.99 121.62-36.62 122.33-35.96 123.04-35.3 123.48-34.45 123.92-33.59 123.92-32.67ZM125.92-24.37L125.92-24.37Q125.67-21.78 125.53-19.24 125.38-16.7 125.23-14.16L125.23-14.16Q125.04-11.18 124.57-8.25 124.11-5.32 123.53-2.39L123.53-2.39 116.05-1.61Q116.05-3.17 116.08-4.69 116.1-6.2 116.1-7.76L116.1-7.76Q116.1-11.77 115.96-15.77 115.81-19.78 115.66-23.78L115.66-23.78Q118.25-23.88 120.77-24.07 123.28-24.27 125.92-24.37ZM151.89-34.62L151.89-34.62Q151.89-33.2 151.77-31.86 151.65-30.52 151.45-29.1L151.45-29.1Q151.21-29.15 150.67-29.15L150.67-29.15Q149.99-29.15 149.13-29.05 148.28-28.96 147.42-28.74 146.57-28.52 145.79-28.15 145.01-27.78 144.52-27.25L144.52-27.25Q143.98-26.61 143.47-25.68 142.96-24.76 142.96-23.88L142.96-23.88Q142.96-23.49 143.01-23.29L143.01-23.29 148.47-23.05Q148.57-22.27 148.67-21.44 148.77-20.61 148.77-19.82L148.77-19.82Q148.77-19.04 148.72-18.31 148.67-17.58 148.62-16.85L148.62-16.85 143.88-15.87Q144.27-11.67 144.71-7.54 145.15-3.42 145.4 0.78L145.4 0.78Q144.81 0.78 144.23 0.76 143.64 0.73 143.1 0.73L143.1 0.73Q140.56 0.73 138.1 0.9 135.63 1.07 133.14 1.12L133.14 1.12 133.58-15.04 129.92-14.84 129.92-16.16Q129.92-17.87 130.11-19.53 130.31-21.19 130.41-22.9L130.41-22.9Q131.97-22.95 132.7-23.02 133.43-23.1 133.68-23.19L133.68-23.19Q133.97-23.29 133.87-23.44L133.87-23.44Q133.97-25.1 134.17-26.61L134.17-26.61Q134.31-27.88 134.56-29.2 134.8-30.52 135.19-31.25L135.19-31.25Q136.41-33.59 138.05-34.84 139.68-36.08 141.61-36.65 143.54-37.21 145.72-37.28 147.89-37.35 150.23-37.35L150.23-37.35Q150.62-37.35 150.99-37.35 151.35-37.35 151.75-37.3L151.75-37.3Q151.89-35.89 151.89-34.62ZM187.83-9.62L187.83-9.62Q187.83-9.08 187.83-8.06 187.83-7.03 187.78-5.74 187.73-4.44 187.66-3.05 187.58-1.66 187.49-0.42 187.39 0.83 187.22 1.78 187.05 2.73 186.85 3.13L186.85 3.13Q186.02 4.44 185.31 5.15 184.6 5.86 183.77 6.15 182.94 6.45 181.89 6.47 180.84 6.49 179.43 6.49L179.43 6.49Q174.74 6.49 170.1 6.13 165.46 5.76 160.82 5.27L160.82 5.27 160.82-1.42Q161.26-1.42 162.75-1.44 164.24-1.46 166.24-1.51 168.25-1.56 170.49-1.66 172.74-1.76 174.69-1.9 176.65-2.05 178.06-2.25 179.48-2.44 179.82-2.73L179.82-2.73Q180.26-3.08 180.53-3.78 180.8-4.49 180.92-5.27 181.04-6.05 181.09-6.84 181.14-7.62 181.14-8.11L181.14-8.11Q181.14-8.59 181.14-9.03 181.14-9.47 181.09-10.01L181.09-10.01Q180.36-8.35 179.14-7.52 177.91-6.69 176.4-6.35 174.89-6.01 173.23-5.98 171.57-5.96 170.05-5.96L170.05-5.96Q166.88-5.96 163.93-6.23 160.97-6.49 158.7-7.62 156.43-8.74 155.04-11.01 153.65-13.28 153.65-17.29L153.65-17.29Q153.65-21.24 154.18-25.17 154.72-29.1 155.55-32.96L155.55-32.96 165.85-32.86Q165.02-29.79 164.39-26.61 163.75-23.44 163.75-20.21L163.75-20.21Q163.75-18.51 164-17.43 164.24-16.36 164.88-15.7 165.51-15.04 166.64-14.79 167.76-14.55 169.47-14.55L169.47-14.55Q170.15-14.55 171.15-14.65 172.15-14.75 173.2-14.92 174.25-15.09 175.2-15.38 176.16-15.67 176.69-16.11L176.69-16.11Q176.89-16.26 177.04-17.09 177.18-17.92 177.28-19.07 177.38-20.21 177.43-21.53 177.48-22.85 177.5-24.02 177.52-25.2 177.52-26.05 177.52-26.9 177.52-27.15L177.52-27.15Q177.52-28.81 177.52-30.44 177.52-32.08 177.43-33.74L177.43-33.74Q179.82-33.5 182.14-33.33 184.46-33.15 186.85-33.06L186.85-33.06Q187.05-28.32 187.27-23.68 187.49-19.04 187.73-14.31L187.73-14.31Q187.83-13.13 187.83-11.94 187.83-10.74 187.83-9.62Z" opacity="1" transform="matrix(1,0,0,1,0,0)" fill="#9323ba" class="wordmark-text-0" data-fill-palette-color="quaternary" id="text-0"></path></svg></g></svg></g><g transform="matrix(1,0,0,1,0,63.31907433921998)"><svg viewBox="0 0 213.1584412271571 19.23933556467183" height="19.23933556467183" width="213.1584412271571"><g transform="matrix(1,0,0,1,0,0)"><svg width="213.1584412271571" viewBox="3.75 -38.2 572.73 51.7" height="19.23933556467183" data-palette-color="#9323ba"><path d="M3.75-34.85L8.3-34.85 8.3-12.8Q8.3-8.15 10.58-5.9 12.85-3.65 16.9-3.65L16.9-3.65Q20.9-3.65 23.18-5.9 25.45-8.15 25.45-12.8L25.45-12.8 25.45-34.85 30-34.85 30-12.85Q30-8.5 28.25-5.53 26.5-2.55 23.53-1.1 20.55 0.35 16.85 0.35L16.85 0.35Q13.15 0.35 10.18-1.1 7.2-2.55 5.48-5.53 3.75-8.5 3.75-12.85L3.75-12.85 3.75-34.85ZM42.15-22.35Q43.5-24.7 46.17-26.28 48.85-27.85 52.4-27.85L52.4-27.85Q56.05-27.85 59.02-26.1 62-24.35 63.7-21.18 65.4-18 65.4-13.8L65.4-13.8Q65.4-9.65 63.7-6.4 62-3.15 59.02-1.35 56.05 0.45 52.4 0.45L52.4 0.45Q48.9 0.45 46.22-1.13 43.55-2.7 42.15-5.05L42.15-5.05 42.15 13 37.6 13 37.6-27.4 42.15-27.4 42.15-22.35ZM60.75-13.8Q60.75-16.9 59.5-19.2 58.25-21.5 56.12-22.7 54-23.9 51.45-23.9L51.45-23.9Q48.95-23.9 46.82-22.68 44.7-21.45 43.42-19.13 42.15-16.8 42.15-13.75L42.15-13.75Q42.15-10.65 43.42-8.33 44.7-6 46.82-4.78 48.95-3.55 51.45-3.55L51.45-3.55Q54-3.55 56.12-4.78 58.25-6 59.5-8.33 60.75-10.65 60.75-13.8L60.75-13.8ZM71.4-37L75.95-37 75.95 0 71.4 0 71.4-37ZM86.04-31.85Q84.74-31.85 83.84-32.75 82.94-33.65 82.94-34.95L82.94-34.95Q82.94-36.25 83.84-37.15 84.74-38.05 86.04-38.05L86.04-38.05Q87.29-38.05 88.17-37.15 89.04-36.25 89.04-34.95L89.04-34.95Q89.04-33.65 88.17-32.75 87.29-31.85 86.04-31.85L86.04-31.85ZM83.69-27.4L88.24-27.4 88.24 0 83.69 0 83.69-27.4ZM107.14-27.4L107.14-23.65 101.39-23.65 101.39 0 96.84 0 96.84-23.65 93.29-23.65 93.29-27.4 96.84-27.4 96.84-29.35Q96.84-33.95 99.22-36.08 101.59-38.2 106.84-38.2L106.84-38.2 106.84-34.4Q103.84-34.4 102.62-33.23 101.39-32.05 101.39-29.35L101.39-29.35 101.39-27.4 107.14-27.4ZM125.14-23.65L117.99-23.65 117.99-7.5Q117.99-5.5 118.84-4.67 119.69-3.85 121.79-3.85L121.79-3.85 125.14-3.85 125.14 0 121.04 0Q117.24 0 115.34-1.75 113.44-3.5 113.44-7.5L113.44-7.5 113.44-23.65 109.89-23.65 109.89-27.4 113.44-27.4 113.44-34.3 117.99-34.3 117.99-27.4 125.14-27.4 125.14-23.65ZM132.99-31.85Q131.69-31.85 130.79-32.75 129.89-33.65 129.89-34.95L129.89-34.95Q129.89-36.25 130.79-37.15 131.69-38.05 132.99-38.05L132.99-38.05Q134.24-38.05 135.11-37.15 135.99-36.25 135.99-34.95L135.99-34.95Q135.99-33.65 135.11-32.75 134.24-31.85 132.99-31.85L132.99-31.85ZM130.64-27.4L135.19-27.4 135.19 0 130.64 0 130.64-27.4ZM156.28-27.9Q161.28-27.9 164.38-24.88 167.48-21.85 167.48-16.15L167.48-16.15 167.48 0 162.98 0 162.98-15.5Q162.98-19.6 160.93-21.78 158.88-23.95 155.33-23.95L155.33-23.95Q151.73-23.95 149.61-21.7 147.48-19.45 147.48-15.15L147.48-15.15 147.48 0 142.93 0 142.93-27.4 147.48-27.4 147.48-23.5Q148.83-25.6 151.16-26.75 153.48-27.9 156.28-27.9L156.28-27.9ZM186.23-27.85Q189.78-27.85 192.46-26.3 195.13-24.75 196.43-22.4L196.43-22.4 196.43-27.4 201.03-27.4 201.03 0.6Q201.03 4.35 199.43 7.28 197.83 10.2 194.86 11.85 191.88 13.5 187.93 13.5L187.93 13.5Q182.53 13.5 178.93 10.95 175.33 8.4 174.68 4L174.68 4 179.18 4Q179.93 6.5 182.28 8.03 184.63 9.55 187.93 9.55L187.93 9.55Q191.68 9.55 194.06 7.2 196.43 4.85 196.43 0.6L196.43 0.6 196.43-5.15Q195.08-2.75 192.43-1.15 189.78 0.45 186.23 0.45L186.23 0.45Q182.58 0.45 179.61-1.35 176.63-3.15 174.93-6.4 173.23-9.65 173.23-13.8L173.23-13.8Q173.23-18 174.93-21.18 176.63-24.35 179.61-26.1 182.58-27.85 186.23-27.85L186.23-27.85ZM196.43-13.75Q196.43-16.85 195.18-19.15 193.93-21.45 191.81-22.68 189.68-23.9 187.13-23.9L187.13-23.9Q184.58-23.9 182.48-22.7 180.38-21.5 179.13-19.2 177.88-16.9 177.88-13.8L177.88-13.8Q177.88-10.65 179.13-8.33 180.38-6 182.48-4.78 184.58-3.55 187.13-3.55L187.13-3.55Q189.68-3.55 191.81-4.78 193.93-6 195.18-8.33 196.43-10.65 196.43-13.75L196.43-13.75ZM232.93-34.85Q238.63-34.85 242.8-32.73 246.98-30.6 249.2-26.65 251.43-22.7 251.43-17.35L251.43-17.35Q251.43-12 249.2-8.08 246.98-4.15 242.8-2.08 238.63 0 232.93 0L232.93 0 222.08 0 222.08-34.85 232.93-34.85ZM232.93-3.75Q239.68-3.75 243.23-7.33 246.78-10.9 246.78-17.35L246.78-17.35Q246.78-23.85 243.2-27.5 239.63-31.15 232.93-31.15L232.93-31.15 226.63-31.15 226.63-3.75 232.93-3.75ZM255.72-13.8Q255.72-18 257.42-21.18 259.12-24.35 262.1-26.1 265.07-27.85 268.72-27.85L268.72-27.85Q272.32-27.85 274.97-26.3 277.62-24.75 278.92-22.4L278.92-22.4 278.92-27.4 283.52-27.4 283.52 0 278.92 0 278.92-5.1Q277.57-2.7 274.9-1.13 272.22 0.45 268.67 0.45L268.67 0.45Q265.02 0.45 262.07-1.35 259.12-3.15 257.42-6.4 255.72-9.65 255.72-13.8L255.72-13.8ZM278.92-13.75Q278.92-16.85 277.67-19.15 276.42-21.45 274.3-22.68 272.17-23.9 269.62-23.9L269.62-23.9Q267.07-23.9 264.97-22.7 262.87-21.5 261.62-19.2 260.37-16.9 260.37-13.8L260.37-13.8Q260.37-10.65 261.62-8.33 262.87-6 264.97-4.78 267.07-3.55 269.62-3.55L269.62-3.55Q272.17-3.55 274.3-4.78 276.42-6 277.67-8.33 278.92-10.65 278.92-13.75L278.92-13.75ZM293.57-31.85Q292.27-31.85 291.37-32.75 290.47-33.65 290.47-34.95L290.47-34.95Q290.47-36.25 291.37-37.15 292.27-38.05 293.57-38.05L293.57-38.05Q294.82-38.05 295.7-37.15 296.57-36.25 296.57-34.95L296.57-34.95Q296.57-33.65 295.7-32.75 294.82-31.85 293.57-31.85L293.57-31.85ZM291.22-27.4L295.77-27.4 295.77 0 291.22 0 291.22-27.4ZM308.07-22.95Q309.27-25.3 311.49-26.6 313.72-27.9 316.92-27.9L316.92-27.9 316.92-23.2 315.72-23.2Q308.07-23.2 308.07-14.9L308.07-14.9 308.07 0 303.52 0 303.52-27.4 308.07-27.4 308.07-22.95ZM341.07-27.4L345.77-27.4 329.27 12.9 324.57 12.9 329.97-0.3 318.92-27.4 323.97-27.4 332.57-5.2 341.07-27.4ZM350.01-6.3L355.01-6.3 349.41 7.15 346.36 7.15 350.01-6.3ZM384.41-34.85Q390.11-34.85 394.28-32.73 398.46-30.6 400.68-26.65 402.91-22.7 402.91-17.35L402.91-17.35Q402.91-12 400.68-8.08 398.46-4.15 394.28-2.08 390.11 0 384.41 0L384.41 0 373.56 0 373.56-34.85 384.41-34.85ZM384.41-3.75Q391.16-3.75 394.71-7.33 398.26-10.9 398.26-17.35L398.26-17.35Q398.26-23.85 394.68-27.5 391.11-31.15 384.41-31.15L384.41-31.15 378.11-31.15 378.11-3.75 384.41-3.75ZM411.26-31.85Q409.96-31.85 409.06-32.75 408.16-33.65 408.16-34.95L408.16-34.95Q408.16-36.25 409.06-37.15 409.96-38.05 411.26-38.05L411.26-38.05Q412.51-38.05 413.38-37.15 414.26-36.25 414.26-34.95L414.26-34.95Q414.26-33.65 413.38-32.75 412.51-31.85 411.26-31.85L411.26-31.85ZM408.91-27.4L413.46-27.4 413.46 0 408.91 0 408.91-27.4ZM432.5-27.85Q436.05-27.85 438.73-26.3 441.4-24.75 442.7-22.4L442.7-22.4 442.7-27.4 447.3-27.4 447.3 0.6Q447.3 4.35 445.7 7.28 444.1 10.2 441.13 11.85 438.15 13.5 434.2 13.5L434.2 13.5Q428.8 13.5 425.2 10.95 421.6 8.4 420.95 4L420.95 4 425.45 4Q426.2 6.5 428.55 8.03 430.9 9.55 434.2 9.55L434.2 9.55Q437.95 9.55 440.33 7.2 442.7 4.85 442.7 0.6L442.7 0.6 442.7-5.15Q441.35-2.75 438.7-1.15 436.05 0.45 432.5 0.45L432.5 0.45Q428.85 0.45 425.88-1.35 422.9-3.15 421.2-6.4 419.5-9.65 419.5-13.8L419.5-13.8Q419.5-18 421.2-21.18 422.9-24.35 425.88-26.1 428.85-27.85 432.5-27.85L432.5-27.85ZM442.7-13.75Q442.7-16.85 441.45-19.15 440.2-21.45 438.08-22.68 435.95-23.9 433.4-23.9L433.4-23.9Q430.85-23.9 428.75-22.7 426.65-21.5 425.4-19.2 424.15-16.9 424.15-13.8L424.15-13.8Q424.15-10.65 425.4-8.33 426.65-6 428.75-4.78 430.85-3.55 433.4-3.55L433.4-3.55Q435.95-3.55 438.08-4.78 440.2-6 441.45-8.33 442.7-10.65 442.7-13.75L442.7-13.75ZM457.35-31.85Q456.05-31.85 455.15-32.75 454.25-33.65 454.25-34.95L454.25-34.95Q454.25-36.25 455.15-37.15 456.05-38.05 457.35-38.05L457.35-38.05Q458.6-38.05 459.48-37.15 460.35-36.25 460.35-34.95L460.35-34.95Q460.35-33.65 459.48-32.75 458.6-31.85 457.35-31.85L457.35-31.85ZM455-27.4L459.55-27.4 459.55 0 455 0 455-27.4ZM480-23.65L472.85-23.65 472.85-7.5Q472.85-5.5 473.7-4.67 474.55-3.85 476.65-3.85L476.65-3.85 480-3.85 480 0 475.9 0Q472.1 0 470.2-1.75 468.3-3.5 468.3-7.5L468.3-7.5 468.3-23.65 464.75-23.65 464.75-27.4 468.3-27.4 468.3-34.3 472.85-34.3 472.85-27.4 480-27.4 480-23.65ZM483.8-13.8Q483.8-18 485.5-21.18 487.2-24.35 490.17-26.1 493.15-27.85 496.8-27.85L496.8-27.85Q500.4-27.85 503.05-26.3 505.7-24.75 507-22.4L507-22.4 507-27.4 511.6-27.4 511.6 0 507 0 507-5.1Q505.65-2.7 502.97-1.13 500.3 0.45 496.75 0.45L496.75 0.45Q493.1 0.45 490.15-1.35 487.2-3.15 485.5-6.4 483.8-9.65 483.8-13.8L483.8-13.8ZM507-13.75Q507-16.85 505.75-19.15 504.5-21.45 502.37-22.68 500.25-23.9 497.7-23.9L497.7-23.9Q495.15-23.9 493.05-22.7 490.95-21.5 489.7-19.2 488.45-16.9 488.45-13.8L488.45-13.8Q488.45-10.65 489.7-8.33 490.95-6 493.05-4.78 495.15-3.55 497.7-3.55L497.7-3.55Q500.25-3.55 502.37-4.78 504.5-6 505.75-8.33 507-10.65 507-13.75L507-13.75ZM519.29-37L523.84-37 523.84 0 519.29 0 519.29-37ZM531.59-37L536.14-37 536.14 0 531.59 0 531.59-37ZM562.79-27.4L567.49-27.4 550.99 12.9 546.29 12.9 551.69-0.3 540.64-27.4 545.69-27.4 554.29-5.2 562.79-27.4ZM573.48 0.3Q572.18 0.3 571.28-0.6 570.38-1.5 570.38-2.8L570.38-2.8Q570.38-4.1 571.28-5 572.18-5.9 573.48-5.9L573.48-5.9Q574.73-5.9 575.61-5 576.48-4.1 576.48-2.8L576.48-2.8Q576.48-1.5 575.61-0.6 574.73 0.3 573.48 0.3L573.48 0.3Z" opacity="1" transform="matrix(1,0,0,1,0,0)" fill="#9323ba" class="slogan-text-1" data-fill-palette-color="quaternary" id="text-1"></path></svg></g></svg></g></svg></g></svg></g><g transform="matrix(1,0,0,1,40.713262274387006,0)"><svg viewBox="0 0 131.7319166783831 82.90284712320693" height="82.90284712320693" width="131.7319166783831"><g><svg xmlns="http://www.w3.org/2000/svg" xmlns:xlink="http://www.w3.org/1999/xlink" version="1.1" x="0" y="0" viewBox="2.5417168370012178e-14 18.534000000000006 99.99999999999997 62.93300000000005" enable-background="new 0 0 100 100" xml:space="preserve" height="82.90284712320693" width="131.7319166783831" class="icon-icon-0" data-fill-palette-color="quaternary" id="icon-0"><g fill="#9323ba" data-fill-palette-color="quaternary"><path fill-rule="evenodd" clip-rule="evenodd" fill="#9323ba" d="M8.458 54.494c-0.164 0-2.12 2.129-2.616 2.615-0.328 0.492-0.812 1.312-0.488 2.457 0.488 1.145 1.148 7.193 1.148 8.496 0 1.309-0.164 5.721-0.164 6.049 0 0.492-0.164 0.814-0.164 1.143 0.164 0.164 0.483 0.656 0.812 0.816 0.333 0.168 0.98 0.656 0.98 0.656s-0.98 1.96-1.144 2.452c0.98 1.143 3.76 2.123 5.232 2.123 1.312 0 2.124-0.328 2.124-1.303 0-0.82-1.308-2.457-1.955-3.108-0.497-0.652-1.144-4.084-1.144-7.027 0-2.781 0.976-6.865 3.099-9.48 3.113 5.721 3.929 10.953 3.761 14.385 1.308 0.158 1.96 0.979 2.452 2.123 0.651 1.144 1.641 2.124 4.247 2.124 1.309 0 1.801-0.328 1.969-0.488 0-0.168-0.168-0.656-0.66-0.984-0.319-0.488-3.269-5.063-3.761-6.048-0.482-0.975-0.979-3.104-0.979-3.92 0-0.984 0-3.432 1.144-3.6 1.309-0.324 1.473 1.641 2.133 1.641 0.647-0.168 0.155-1.145 0.98-1.312 0.812-0.16 1.955-0.488 2.288 0.328 0.328 0.816 0.647 1.309 1.14 0.492 0.492-0.652 0.492-1.309 0.492-1.637 1.964-1.145 2.611-1.959 2.939-2.451 0.497-0.492 1.805-1.961 1.805-1.961 2.288 0.164 4.74 0.324 5.551 0.324 0.979 0 3.432-0.16 4.412-0.16 1.144 0 2.288 0.16 3.596 0.16 1.145 0 2.949-0.324 3.597-0.488 0.496-0.164 0.66-0.164 1.144 0 0.661 0.164 1.145 0.488 1.145 1.145 0.164 0.488 0.66 1.631 0.66 2.451v1.797c-0.168 0.328-0.979 2.129-0.979 2.615 0 0.492 0.812 0.984 1.144 1.637 0.319 0.816 1.309 2.289 1.145 4.084 0 1.637-0.333 2.287-0.333 3.271 0 0.488-0.492 0.98 0.333 0.98 0.812 0.163 0.812 0.491 0.976 1.144 0.332 0.492 0.332 0.98 0.979 1.473 0.661 0.322 2.616 1.143 3.76 1.143 1.145 0.164 1.477 0 1.641-0.492 0.155-0.486-0.164-1.143-0.824-1.631-0.816-0.492-1.145-0.492-1.309-1.145-0.319-0.815-0.815-3.106-0.979-3.759-0.164-0.816-0.324-3.924-0.324-4.576 0-0.82 0-2.129 0.16-2.943 0.328-0.656 0.66-2.617 0.66-2.617 0.324 1.801 1.309 5.068 1.628 5.232 0.492 0.328 0.824 0.652 0.988 1.145 0.155 0.328 0.483 3.104 0.812 4.088 0.169 0.816 0.333 3.919 0.492 4.247 0.324 0.16 0.984 0.16 1.304 0.488 0.492 0.328 0.989 1.312 1.637 1.799 0.66 0.488 1.641 0.98 2.616 0.98 1.144 0 1.796-0.164 1.96-0.492 0.164-0.324 0.164-0.652 0-0.975-0.324-0.328-2.288-1.801-2.616-2.289-0.155-0.496-1.3-2.614-1.464-3.271s-1.477-5.393-1.477-6.049 0.333-1.309 0.492-2.123c0-0.82 0.16-3.438 0.16-4.412 0-0.82 0-1.145 0.824-1.145 0.647 0 1.628 0 2.12-0.168 0.492-0.324 1.312-1.145 1.796-1.797 0.66-1.309 1.144-2.123 1.308-2.611 0.164-0.656 1.309-3.928 1.805-5.232 0.647-1.145 2.282-4.089 3.099-5.232 0.824-0.98 2.288-2.616 3.112-3.433 0.812-0.815 1.956-0.984 2.936-1.308 0.98-0.164 2.452 0.164 3.761 0 1.477-0.328 2.784-0.492 3.596-0.82 0.816-0.324 2.616-1.145 3.432-1.304 0.825-0.164 2.78 0.159 3.113-0.164 0.319-0.328 0.483-0.82 0.812-1.308 0.332-0.657 0.651-0.816 0.815-0.985C99.667 36.19 100 36.19 100 35.703c0-0.497-0.164-0.656-0.661-1.312-0.815-0.98-2.452-2.124-2.771-2.776-0.496-0.492-0.824-1.144-1.308-1.636-0.497-0.492-1.805-1.145-2.452-1.796-0.496-0.656-3.276-3.433-3.929-3.925-0.492-0.492-2.452-1.796-2.452-1.796 1.309 0 4.412 0.324 5.557-0.496 1.308-0.816 1.636-1.468 1.969-2.447-1.641 0.328-2.785 0.487-3.597 0.487-0.824 0-3.432-0.328-4.576-0.815-1.308-0.657-1.805-0.657-2.133-0.657-0.319 0-0.647 0.169-1.463 0.492-0.825 0.329-1.309 0.493-1.309 0.98 0 0.328 0.164 0.656 0.483 0.815 0.328 0.328 0.497 1.312 0.164 1.473-0.483 0-0.647-0.16-1.144-0.488-0.328-0.328-1.956-1.144-2.94-1.144-0.819 0-1.302 0.651-1.466 0.979-0.333 0.324-0.497 0.98 0 1.468 0.482 0.497 0.974 0.497 1.307 0.656 0.483 0.164 0.979 0.328 0.979 0.816 0 0.328-0.168 0.492-0.979 0.492-0.824 0.164-4.42 0.492-6.047 0.492-4.257 0.159-13.24 0.651-16.354 0.979-2.936 0.324-6.865 0.816-9.964 1.145-3.112 0.323-4.744 0.323-7.688 0.323-2.78 0-9.808-0.323-11.932-0.815-3.108-0.328-7.023-0.488-8.828-0.652-1.791-0.164-4.74-0.328-6.048 0.492-1.467 0.816-3.432 2.288-4.243 3.761-0.82 1.632-0.82 1.468-1.144 3.104-0.168 1.632-0.825 4.576-1.144 5.883-0.333 1.309-0.333 2.612-0.333 4.084 0 1.473-0.328 4.417-0.328 6.049 0 0.492 0 1.312-0.816 1.472-0.656 0.328-0.976 0.492-1.308 1.145-0.328 0.492-0.812 0.492-0.976 1.471-0.168 0.98-0.168 1.801 0 2.617 0.164 0.814 0.647 0.979 0.812 2.451 0.164 1.145 0.497 3.104 0.661 4.084 0.319-1.145 0.98-1.473 0.98-2.287 0-0.98 0.483-3.27 0.812-4.248 0.164-0.984 1.641-1.637 1.641-2.289 0.164-0.814 0.164-1.471 0-1.959-0.333-0.492-0.497-0.656-0.333-1.312 0.164-0.816 0.497-4.084 0.497-4.905 0-0.815 0.483-7.844 0.647-8.664 0.164-0.975 1.144-4.576 1.144-4.576-0.164 2.944-0.328 7.032-0.328 8.176v5.884c0.164 1.145-0.155 3.756 0.492 4.905 0.652 1.309 0.98 1.795 0.98 1.795L8.458 54.494z" data-fill-palette-color="quaternary"></path></g></svg></g></svg></g><g></g></svg></g></svg></g></svg></g></svg></g><defs></defs></svg><rect width="342.85155851775386" height="342.85155851775386" fill="none" stroke="none" visibility="hidden"></rect></g></svg></g></svg>