<svg xmlns="http://www.w3.org/2000/svg" version="1.1" xmlns:xlink="http://www.w3.org/1999/xlink" xmlns:svgjs="http://svgjs.dev/svgjs" width="2000" height="1999" viewBox="0 0 2000 1999"><g transform="matrix(1,0,0,1,-0.431486880466764,-0.4312711370263287)"><svg viewBox="0 0 343 343" data-background-color="#1d366f" preserveAspectRatio="xMidYMid meet" height="1999" width="2000" xmlns="http://www.w3.org/2000/svg" xmlns:xlink="http://www.w3.org/1999/xlink"><g id="tight-bounds" transform="matrix(1,0,0,1,0.0740000000000407,0.07400000000001228)"><svg viewBox="0 0 342.85155851775386 342.85155851775386" height="342.85155851775386" width="342.85155851775386"><g><svg></svg></g><g><svg viewBox="0 0 342.85155851775386 342.85155851775386" height="342.85155851775386" width="342.85155851775386"><g><path d="M0 171.426c0-94.676 76.75-171.426 171.426-171.426 94.676 0 171.426 76.75 171.426 171.426 0 94.676-76.75 171.426-171.426 171.426-94.676 0-171.426-76.75-171.426-171.426zM171.426 338.938c92.515 0 167.512-74.998 167.512-167.512 0-92.515-74.998-167.512-167.512-167.513-92.515 0-167.512 74.998-167.513 167.513 0 92.515 74.998 167.512 167.513 167.512z" data-fill-palette-color="tertiary" fill="#ffffff" stroke="transparent"></path><ellipse rx="164.56874808852186" ry="164.56874808852186" cx="171.42577925887693" cy="171.42577925887693" fill="#ffffff" stroke="transparent" stroke-width="0" fill-opacity="1" data-fill-palette-color="tertiary"></ellipse></g><g transform="matrix(1,0,0,1,64.84655864529837,83.86823747537416)"><svg viewBox="0 0 213.1584412271571 175.11508356700554" height="175.11508356700554" width="213.1584412271571"><g><svg viewBox="0 0 213.1584412271571 175.11508356700554" height="175.11508356700554" width="213.1584412271571"><g><svg viewBox="0 0 213.1584412271571 175.11508356700554" height="175.11508356700554" width="213.1584412271571"><g transform="matrix(1,0,0,1,0,104.62979832889762)"><svg viewBox="0 0 213.1584412271571 70.48528523810792" height="70.48528523810792" width="213.1584412271571"><g id="textblocktransform"><svg viewBox="0 0 213.1584412271571 70.48528523810792" height="70.48528523810792" width="213.1584412271571" id="textblock"><g><svg viewBox="0 0 213.1584412271571 43.39517383950288" height="43.39517383950288" width="213.1584412271571"><g transform="matrix(1,0,0,1,0,0)"><svg width="213.1584412271571" viewBox="-1.3 -37.95 189.84 38.650000000000006" height="43.39517383950288" data-palette-color="#1d366f"><path d="M28.25 0L18.75 0 19.05-7.85 10.7-7.85 8.25 0-1.3 0 11.55-36 28.05-36 28.25 0ZM19.85-27.25L16.7-27.25 12.75-14.55 19.3-14.55 19.85-27.25ZM39.35-36L53.85-36Q59.55-36 61.95-33.5L61.95-33.5Q63.75-31.6 63.75-28.7L63.75-28.7Q63.75-27.7 63.55-26.6L63.55-26.6 63.1-24.2Q62.55-21.35 60.97-19.75 59.4-18.15 58.2-18.15L58.2-18.15 58.15-17.75Q59.55-17.75 61-16.2 62.45-14.65 62.45-12.55L62.45-12.55Q62.45-11.7 62.25-10.75L62.25-10.75 61.95-9.2Q61.15-4.9 58.12-2.45 55.1 0 49.7 0L49.7 0 33 0 39.35-36ZM49.35-14.7L49.35-14.7 44.6-14.7 43.4-7.8 48.15-7.8Q48.25-7.8 48.35-7.8L48.35-7.8Q50.65-7.8 52-8.88 53.35-9.95 53.35-11.5L53.35-11.5Q53.35-14.7 49.35-14.7ZM50.7-28.2L50.7-28.2 46.95-28.2 45.65-20.75 49.35-20.75Q54.15-20.75 54.15-24.95L54.15-24.95Q54.15-26.4 53.27-27.3 52.4-28.2 50.7-28.2ZM88.69 0.7L88.69 0.7Q82.89 0.7 80.34-1.9L80.34-1.9Q78.44-3.8 78.44-7L78.44-7Q78.44-8.05 78.64-9.25L78.64-9.25 82.04-28.6 91.19-32.4 89.74-24.05 103.54-24.05 102.29-17 88.49-17 87.49-11.35Q87.29-10.4 87.29-9.65L87.29-9.65Q87.29-6.5 90.29-6.5L90.29-6.5Q91.89-6.5 92.97-7.85 94.04-9.2 94.44-11.45L94.44-11.45 102.74-11.45Q100.64 0.7 88.69 0.7ZM115.54 0.7L115.54 0.7Q105.14 0.7 105.14-6.5L105.14-6.5Q105.14-7.5 105.34-8.65L105.34-8.65 106.39-14.85Q107.24-19.65 110.82-22.23 114.39-24.8 120.29-24.8L120.29-24.8Q130.34-24.8 130.34-17.2L130.34-17.2Q130.34-16.1 130.14-14.8L130.14-14.8 129.54-11.25 114.29-11.25 114.09-10.1Q113.99-9.5 113.99-9L113.99-9Q113.99-6.25 117.24-6.25L117.24-6.25Q118.44-6.25 119.29-7 120.14-7.75 120.29-8.75L120.29-8.75 128.59-8.65Q126.94 0.7 115.54 0.7ZM114.79-14.3L121.54-14.3Q121.74-15.15 121.74-15.88 121.74-16.6 121.09-17.35 120.44-18.1 119.02-18.1 117.59-18.1 116.42-17.15 115.24-16.2 114.79-14.3L114.79-14.3ZM143.14 0.7L143.14 0.7Q132.74 0.7 132.74-6.5L132.74-6.5Q132.74-7.5 132.94-8.65L132.94-8.65 133.99-14.85Q134.79-19.65 138.36-22.2 141.94-24.75 147.44-24.8L147.44-24.8Q158.09-24.8 158.09-17.4L158.09-17.4Q158.09-15.8 157.71-14.53 157.34-13.25 156.94-12.8L156.94-12.8 156.54-12.3 148.04-12.3Q149.29-13.4 149.29-14.9L149.29-14.9Q149.29-17.6 146.59-17.6L146.59-17.6Q144.99-17.6 143.84-16.65 142.69-15.7 142.34-13.75L142.34-13.75 141.69-10.1Q141.59-9.6 141.59-9.15L141.59-9.15Q141.59-6.5 144.89-6.5L144.89-6.5Q145.99-6.5 146.86-7.2 147.74-7.9 147.89-8.75L147.89-8.75 156.19-8.65Q154.54 0.7 143.14 0.7ZM186.49-6.4L186.49-6.4Q187.64-6.4 188.54-6.9L188.54-6.9 188.29-1.25Q185.94 0.7 182.94 0.7L182.94 0.7Q176.14 0.7 176.14-5L176.14-5Q176.14-6 176.34-7.15L176.34-7.15 177.44-13.3Q177.59-14.2 177.59-15.1L177.59-15.1Q177.59-17.5 175.06-17.5 172.54-17.5 171.14-15.8L171.14-15.8 168.34 0 159.84 0 166.54-37.95 175.04-37.95 172.19-21.8Q174.94-24.75 179.09-24.75L179.09-24.75Q184.14-24.75 185.64-22.5L185.64-22.5Q186.69-21 186.69-19.15 186.69-17.3 186.39-15.75L186.39-15.75 185.04-8.3Q184.99-8 184.99-7.75L184.99-7.75Q184.99-6.4 186.49-6.4Z" opacity="1" transform="matrix(1,0,0,1,0,0)" fill="#1d366f" class="wordmark-text-0" data-fill-palette-color="quaternary" id="text-0"></path></svg></g></svg></g><g transform="matrix(1,0,0,1,0,53.639732898837366)"><svg viewBox="0 0 213.1584412271571 16.845552339270558" height="16.845552339270558" width="213.1584412271571"><g transform="matrix(1,0,0,1,0,0)"><svg width="213.1584412271571" viewBox="1.65 -37.1 633.88 50.1" height="16.845552339270558" data-palette-color="#1d366f"><path d="M14-31.4L6.2-31.4Q5.4-31.4 4.95-30.88 4.5-30.35 4.5-29.7L4.5-29.7 1.65-29.7Q1.65-31.55 2.95-32.85L2.95-32.85Q4.3-34.2 6.05-34.2L6.05-34.2 28.7-34.2 28.7-31.4 17-31.4 17 0 14 0 14-31.4ZM39.6 0.5Q35.85 0.5 33.25-1.05 30.65-2.6 29.32-5.33 28-8.05 28-11.5L28-11.5Q28-14.9 29.27-18.1 30.55-21.3 33.12-23.35 35.7-25.4 39.4-25.4L39.4-25.4Q41.85-25.4 43.95-24.45 46.05-23.5 47.27-21.75 48.5-20 48.5-17.7L48.5-17.7Q48.5-14 45.35-11.98 42.2-9.95 36.65-10L36.65-10 31.15-10.05Q31.6-6.2 33.72-4.2 35.85-2.2 39.6-2.2L39.6-2.2Q41.85-2.2 43.77-2.83 45.7-3.45 47.5-4.75L47.5-4.75 49-2.75Q47.1-1.25 44.67-0.38 42.25 0.5 39.6 0.5L39.6 0.5ZM37.3-12.6Q45.5-12.6 45.5-17.75L45.5-17.75Q45.5-20.25 43.77-21.48 42.05-22.7 39.55-22.7L39.55-22.7Q36.75-22.7 34.82-21.1 32.9-19.5 31.95-17.15 31-14.8 31-12.6L31-12.6 37.3-12.6ZM65.4 0.3Q59.7 0.3 56.59-2.88 53.5-6.05 53.5-11.9L53.5-11.9Q53.5-15.95 54.95-19.05 56.4-22.15 59-23.88 61.59-25.6 65-25.6L65-25.6Q67.55-25.6 69.59-24.6 71.65-23.6 72.82-21.88 74-20.15 74-18L74-18 71.2-18Q71.2-20.15 69.5-21.53 67.8-22.9 65.09-22.9L65.09-22.9Q61.15-22.9 58.82-19.9 56.5-16.9 56.5-11.85L56.5-11.85Q56.5-7.25 58.8-4.83 61.09-2.4 65.4-2.4L65.4-2.4Q67.25-2.4 69.09-2.93 70.95-3.45 73.3-4.7L73.3-4.7 74.59-2.6Q70.34 0.3 65.4 0.3L65.4 0.3ZM99.49-4.2Q99.49-3.5 99.97-3.03 100.44-2.55 101.09-2.55L101.09-2.55Q102.09-2.55 102.54-3.4L102.54-3.4 104.74-1.75Q104.34-0.9 103.34-0.33 102.34 0.25 101.09 0.25L101.09 0.25Q99.09 0.25 97.79-1 96.49-2.25 96.49-4.25L96.49-4.25 96.49-17.35Q96.49-20.1 95.07-21.53 93.64-22.95 90.89-22.95L90.89-22.95Q88.49-22.95 86.72-21.68 84.94-20.4 83.04-17.85L83.04-17.85 83.04-0.15 80.04-0.15 80.04-36.45 83.04-36.45 83.04-21.35Q86.19-25.65 91.24-25.65L91.24-25.65Q95.34-25.65 97.42-23.55 99.49-21.45 99.49-17.5L99.49-17.5 99.49-4.2ZM123.39-25.1Q123.39-31.35 125.36-34.23 127.34-37.1 131.64-37.1L131.64-37.1Q135.04-37.1 136.99-35.1 138.94-33.1 138.94-29.6L138.94-29.6Q138.94-25.35 136.16-22.93 133.39-20.5 128.79-20.75L128.79-20.75 126.39-20.9 126.39-12.6 133.79-12.6 133.79-9.9 126.39-9.9 126.39 13 123.39 13 123.39-25.1ZM128.79-23.35Q132.14-23.35 134.04-25.03 135.94-26.7 135.94-29.65L135.94-29.65Q135.94-31.95 134.79-33.18 133.64-34.4 131.54-34.4L131.54-34.4Q128.89-34.4 127.64-32.18 126.39-29.95 126.39-25.25L126.39-25.25 126.39-23.35 128.79-23.35ZM152.24 0.5Q148.69 0.5 145.91-1.15 143.14-2.8 141.59-5.75 140.04-8.7 140.04-12.45L140.04-12.45Q140.04-16.2 141.61-19.18 143.19-22.15 145.96-23.83 148.74-25.5 152.29-25.5L152.29-25.5Q155.79-25.5 158.56-23.83 161.34-22.15 162.91-19.2 164.49-16.25 164.49-12.5L164.49-12.5Q164.49-8.75 162.91-5.8 161.34-2.85 158.56-1.18 155.79 0.5 152.24 0.5L152.24 0.5ZM152.29-2.2Q156.44-2.2 158.96-5.05 161.49-7.9 161.49-12.5L161.49-12.5Q161.49-15.55 160.34-17.88 159.19-20.2 157.09-21.5 154.99-22.8 152.29-22.8L152.29-22.8Q149.54-22.8 147.44-21.5 145.34-20.2 144.19-17.82 143.04-15.45 143.04-12.45L143.04-12.45Q143.04-9.45 144.19-7.13 145.34-4.8 147.44-3.5 149.54-2.2 152.29-2.2L152.29-2.2ZM180.43-25.5Q181.93-25.5 183.43-25.05L183.43-25.05 183.43-22.25Q181.98-22.6 180.53-22.6L180.53-22.6Q177.98-22.6 176.38-21.35L176.38-21.35Q174.78-20.1 173.53-17.8L173.53-17.8 173.53 0 170.53 0 170.53-17.5Q170.53-21.45 168.43-23.3L168.43-23.3 170.43-25.3Q171.33-24.75 172.13-23.65 172.93-22.55 173.28-21.2L173.28-21.2Q174.68-23.5 176.08-24.35L176.08-24.35Q177.83-25.5 180.43-25.5L180.43-25.5ZM206.13-31.95Q205.13-31.95 204.65-31.83 204.18-31.7 203.83-31.35L203.83-31.35Q203.53-31.05 203.3-30.53 203.08-30 203.08-29.55L203.08-29.55 200.33-29.6Q200.43-31.95 201.83-33.35L201.83-33.35Q202.58-34.05 203.6-34.38 204.63-34.7 206.18-34.75L206.18-34.75 217.18-34.75Q220.03-34.75 222.33-33.63 224.63-32.5 225.95-30.45 227.28-28.4 227.28-25.7L227.28-25.7Q227.28-23.2 226.25-21.38 225.23-19.55 223.48-18.95L223.48-18.95Q223.43-18.95 223.2-18.82 222.98-18.7 221.98-18.4L221.98-18.4Q222.28-18.3 222.7-18.2 223.13-18.1 223.58-17.9L223.58-17.9Q226.08-16.75 227.48-14.43 228.88-12.1 228.88-9.05L228.88-9.05Q228.88-4.15 225.25-1.83 221.63 0.5 214.98 0.5L214.98 0.5Q210.78 0.5 208.78 0.25L208.78 0.25 206.13-0.05 206.13-31.95ZM215.83-2.25Q225.88-2.25 225.88-9.15L225.88-9.15Q225.88-12.7 223.48-14.73 221.08-16.75 217.48-16.75L217.48-16.75 212.73-16.75 212.73-19.5 217.13-19.5Q220.38-19.5 222.33-21.15L222.33-21.15Q224.28-22.8 224.28-25.75L224.28-25.75Q224.28-28.65 222.55-30.23 220.83-31.8 217.88-31.95L217.88-31.95 209.13-31.95 209.13-2.5 214.03-2.3 215.83-2.25ZM255.18-4.2Q255.18-3.5 255.65-3.03 256.13-2.55 256.78-2.55L256.78-2.55Q257.78-2.55 258.23-3.4L258.23-3.4 260.43-1.75Q260.03-0.9 259.03-0.33 258.03 0.25 256.78 0.25L256.78 0.25Q254.78 0.25 253.48-1 252.18-2.25 252.18-4.25L252.18-4.25 252.18-17.35Q252.18-20.1 250.75-21.53 249.33-22.95 246.58-22.95L246.58-22.95Q244.18-22.95 242.4-21.68 240.63-20.4 238.73-17.85L238.73-17.85 238.73-0.15 235.73-0.15 235.73-36.45 238.73-36.45 238.73-21.35Q241.88-25.65 246.93-25.65L246.93-25.65Q251.03-25.65 253.1-23.55 255.18-21.45 255.18-17.5L255.18-17.5 255.18-4.2ZM273.07 0.5Q269.62 0.5 267.17-1.25 264.72-3 263.47-5.9 262.22-8.8 262.22-12.3L262.22-12.3Q262.22-16.15 263.72-19.13 265.22-22.1 268.02-23.75 270.82-25.4 274.57-25.4L274.57-25.4Q275.72-25.4 277.47-25.28 279.22-25.15 280.57-24.95L280.57-24.95 283.57-24.95 283.57-4.3Q283.57-3.3 284.05-2.78 284.52-2.25 285.22-2.25L285.22-2.25Q286.12-2.25 286.67-3.1L286.67-3.1 288.82-1.4Q288.07-0.35 287.15 0.08 286.22 0.5 285.02 0.5L285.02 0.5Q283.27 0.5 281.95-0.7 280.62-1.9 280.62-3.6L280.62-3.6Q279.42-1.6 277.47-0.55 275.52 0.5 273.07 0.5L273.07 0.5ZM273.12-2.2Q275.37-2.2 277.17-3.3 278.97-4.4 279.87-6.2L279.87-6.2Q280.57-7.65 280.57-9.4L280.57-9.4 280.57-22.5 277.27-22.6 274.37-22.7Q269.82-22.7 267.52-19.85 265.22-17 265.22-12.4L265.22-12.4Q265.22-8.15 267.25-5.18 269.27-2.2 273.12-2.2L273.12-2.2ZM303.12-25.5Q304.62-25.5 306.12-25.05L306.12-25.05 306.12-22.25Q304.67-22.6 303.22-22.6L303.22-22.6Q300.67-22.6 299.07-21.35L299.07-21.35Q297.47-20.1 296.22-17.8L296.22-17.8 296.22 0 293.22 0 293.22-17.5Q293.22-21.45 291.12-23.3L291.12-23.3 293.12-25.3Q294.02-24.75 294.82-23.65 295.62-22.55 295.97-21.2L295.97-21.2Q297.37-23.5 298.77-24.35L298.77-24.35Q300.52-25.5 303.12-25.5L303.12-25.5ZM319.32 0.5Q315.87 0.5 313.42-1.25 310.97-3 309.72-5.9 308.47-8.8 308.47-12.3L308.47-12.3Q308.47-16.15 309.97-19.13 311.47-22.1 314.27-23.75 317.07-25.4 320.82-25.4L320.82-25.4Q321.97-25.4 323.72-25.28 325.47-25.15 326.82-24.95L326.82-24.95 329.82-24.95 329.82-4.3Q329.82-3.3 330.29-2.78 330.77-2.25 331.47-2.25L331.47-2.25Q332.37-2.25 332.92-3.1L332.92-3.1 335.07-1.4Q334.32-0.35 333.39 0.08 332.47 0.5 331.27 0.5L331.27 0.5Q329.52 0.5 328.19-0.7 326.87-1.9 326.87-3.6L326.87-3.6Q325.67-1.6 323.72-0.55 321.77 0.5 319.32 0.5L319.32 0.5ZM319.37-2.2Q321.62-2.2 323.42-3.3 325.22-4.4 326.12-6.2L326.12-6.2Q326.82-7.65 326.82-9.4L326.82-9.4 326.82-22.5 323.52-22.6 320.62-22.7Q316.07-22.7 313.77-19.85 311.47-17 311.47-12.4L311.47-12.4Q311.47-8.15 313.49-5.18 315.52-2.2 319.37-2.2L319.37-2.2ZM345.42 0.5Q342.02 0.5 340.42-1.43 338.82-3.35 338.82-7.2L338.82-7.2 338.82-31.25 341.82-31.25 341.82-24.9 349.67-24.9 349.67-22.2 341.82-22.2 341.82-7.2Q341.82-2.2 345.42-2.2L345.42-2.2Q348.27-2.2 349.82-5.25L349.82-5.25 352.07-3.7Q350.92-1.6 349.32-0.55 347.72 0.5 345.42 0.5L345.42 0.5ZM358.01-24.6L357.51-34.2 361.11-34.2 360.61-24.6 358.01-24.6ZM376.51 0.6Q371.46 0.6 367.11-3.3L367.11-3.3 368.76-5.3Q370.66-3.75 372.54-2.93 374.41-2.1 376.56-2.1L376.56-2.1Q379.26-2.1 380.79-3.38 382.31-4.65 382.31-6.85L382.31-6.85Q382.31-8.25 381.64-9.13 380.96-10 379.84-10.55 378.71-11.1 375.81-12.3L375.81-12.3Q373.16-13.4 371.71-14.2 370.26-15 369.41-16.18 368.56-17.35 368.56-19.15L368.56-19.15Q368.56-22.1 370.66-23.88 372.76-25.65 376.26-25.65L376.26-25.65Q378.06-25.65 379.84-25.15 381.61-24.65 382.86-23.7L382.86-23.7 381.61-21.55Q379.31-22.95 376.41-22.95L376.41-22.95Q374.11-22.95 372.86-22.05 371.61-21.15 371.61-19.5L371.61-19.5Q371.61-18.25 372.29-17.45 372.96-16.65 374.04-16.13 375.11-15.6 377.61-14.6L377.61-14.6Q380.46-13.45 382.04-12.53 383.61-11.6 384.49-10.28 385.36-8.95 385.36-7L385.36-7Q385.36-3.55 382.94-1.48 380.51 0.6 376.51 0.6L376.51 0.6ZM415.36-31.4L407.56-31.4Q406.76-31.4 406.31-30.88 405.86-30.35 405.86-29.7L405.86-29.7 403.01-29.7Q403.01-31.55 404.31-32.85L404.31-32.85Q405.66-34.2 407.41-34.2L407.41-34.2 430.06-34.2 430.06-31.4 418.36-31.4 418.36 0 415.36 0 415.36-31.4ZM441.7 0.5Q438.15 0.5 435.38-1.15 432.6-2.8 431.05-5.75 429.5-8.7 429.5-12.45L429.5-12.45Q429.5-16.2 431.08-19.18 432.65-22.15 435.43-23.83 438.2-25.5 441.75-25.5L441.75-25.5Q445.25-25.5 448.03-23.83 450.8-22.15 452.38-19.2 453.95-16.25 453.95-12.5L453.95-12.5Q453.95-8.75 452.38-5.8 450.8-2.85 448.03-1.18 445.25 0.5 441.7 0.5L441.7 0.5ZM441.75-2.2Q445.9-2.2 448.43-5.05 450.95-7.9 450.95-12.5L450.95-12.5Q450.95-15.55 449.8-17.88 448.65-20.2 446.55-21.5 444.45-22.8 441.75-22.8L441.75-22.8Q439-22.8 436.9-21.5 434.8-20.2 433.65-17.82 432.5-15.45 432.5-12.45L432.5-12.45Q432.5-9.45 433.65-7.13 434.8-4.8 436.9-3.5 439-2.2 441.75-2.2L441.75-2.2ZM495.9-3.4L498.1-1.75Q497.7-0.9 496.7-0.33 495.7 0.25 494.45 0.25L494.45 0.25Q492.45 0.25 491.15-1 489.85-2.25 489.85-4.25L489.85-4.25 489.85-17.5Q489.7-20.2 488.5-21.48 487.3-22.75 485-22.75L485-22.75Q480.5-22.75 477.9-17.8L477.9-17.8 477.9 0 474.9 0 474.9-16.8Q474.9-19.6 473.7-21.18 472.5-22.75 470.1-22.75L470.1-22.75Q467.8-22.75 465.83-21.35 463.85-19.95 463-17.9L463-17.9 463 0 460 0 460-17.5Q460-21.45 457.9-23.3L457.9-23.3 459.9-25.3Q460.75-24.7 461.55-23.65 462.35-22.6 462.75-21.3L462.75-21.3Q464.1-23.3 466.03-24.38 467.95-25.45 470.35-25.45L470.35-25.45Q472.8-25.45 474.58-24.3 476.35-23.15 477.25-20.9L477.25-20.9Q478.65-23.1 480.63-24.28 482.6-25.45 485.05-25.45L485.05-25.45Q488.6-25.45 490.73-23.28 492.85-21.1 492.85-17.55L492.85-17.55 492.85-4.2Q492.85-3.5 493.33-3.03 493.8-2.55 494.45-2.55L494.45-2.55Q495.45-2.55 495.9-3.4L495.9-3.4ZM512.25 0.5Q508.7 0.5 505.92-1.15 503.15-2.8 501.6-5.75 500.05-8.7 500.05-12.45L500.05-12.45Q500.05-16.2 501.62-19.18 503.2-22.15 505.97-23.83 508.75-25.5 512.3-25.5L512.3-25.5Q515.8-25.5 518.57-23.83 521.35-22.15 522.92-19.2 524.5-16.25 524.5-12.5L524.5-12.5Q524.5-8.75 522.92-5.8 521.35-2.85 518.57-1.18 515.8 0.5 512.25 0.5L512.25 0.5ZM512.3-2.2Q516.45-2.2 518.97-5.05 521.5-7.9 521.5-12.5L521.5-12.5Q521.5-15.55 520.35-17.88 519.2-20.2 517.1-21.5 515-22.8 512.3-22.8L512.3-22.8Q509.55-22.8 507.45-21.5 505.35-20.2 504.2-17.82 503.05-15.45 503.05-12.45L503.05-12.45Q503.05-9.45 504.2-7.13 505.35-4.8 507.45-3.5 509.55-2.2 512.3-2.2L512.3-2.2ZM540.45-25.5Q541.95-25.5 543.45-25.05L543.45-25.05 543.45-22.25Q542-22.6 540.55-22.6L540.55-22.6Q538-22.6 536.4-21.35L536.4-21.35Q534.8-20.1 533.55-17.8L533.55-17.8 533.55 0 530.55 0 530.55-17.5Q530.55-21.45 528.45-23.3L528.45-23.3 530.45-25.3Q531.35-24.75 532.15-23.65 532.95-22.55 533.3-21.2L533.3-21.2Q534.7-23.5 536.1-24.35L536.1-24.35Q537.85-25.5 540.45-25.5L540.45-25.5ZM558.79-25.5Q560.29-25.5 561.79-25.05L561.79-25.05 561.79-22.25Q560.34-22.6 558.89-22.6L558.89-22.6Q556.34-22.6 554.74-21.35L554.74-21.35Q553.14-20.1 551.89-17.8L551.89-17.8 551.89 0 548.89 0 548.89-17.5Q548.89-21.45 546.79-23.3L546.79-23.3 548.79-25.3Q549.69-24.75 550.49-23.65 551.29-22.55 551.64-21.2L551.64-21.2Q553.04-23.5 554.44-24.35L554.44-24.35Q556.19-25.5 558.79-25.5L558.79-25.5ZM576.49 0.5Q572.94 0.5 570.16-1.15 567.39-2.8 565.84-5.75 564.29-8.7 564.29-12.45L564.29-12.45Q564.29-16.2 565.87-19.18 567.44-22.15 570.22-23.83 572.99-25.5 576.54-25.5L576.54-25.5Q580.04-25.5 582.82-23.83 585.59-22.15 587.16-19.2 588.74-16.25 588.74-12.5L588.74-12.5Q588.74-8.75 587.16-5.8 585.59-2.85 582.82-1.18 580.04 0.5 576.49 0.5L576.49 0.5ZM576.54-2.2Q580.69-2.2 583.22-5.05 585.74-7.9 585.74-12.5L585.74-12.5Q585.74-15.55 584.59-17.88 583.44-20.2 581.34-21.5 579.24-22.8 576.54-22.8L576.54-22.8Q573.79-22.8 571.69-21.5 569.59-20.2 568.44-17.82 567.29-15.45 567.29-12.45L567.29-12.45Q567.29-9.45 568.44-7.13 569.59-4.8 571.69-3.5 573.79-2.2 576.54-2.2L576.54-2.2ZM594.14-20.8Q593.84-21.7 593.14-22.53 592.44-23.35 591.74-23.75L591.74-23.75 593.14-25.85Q595.89-24 597.04-20.4L597.04-20.4 602.34-4.35 609.09-25 611.89-25 618.64-4.35 625.39-25 628.19-25 620.04-0.05 617.24-0.05 610.49-20.7 603.74-0.05 600.89-0.05 594.14-20.8ZM633.38 0.2Q632.53 0.2 631.91-0.43 631.28-1.05 631.28-1.9L631.28-1.9Q631.28-2.8 631.91-3.43 632.53-4.05 633.38-4.05L633.38-4.05Q634.28-4.05 634.91-3.43 635.53-2.8 635.53-1.9L635.53-1.9Q635.53-1.05 634.91-0.43 634.28 0.2 633.38 0.2L633.38 0.2Z" opacity="1" transform="matrix(1,0,0,1,0,0)" fill="#1d366f" class="slogan-text-1" data-fill-palette-color="quaternary" id="text-1"></path></svg></g></svg></g></svg></g></svg></g><g transform="matrix(1,0,0,1,40.713262274387006,0)"><svg viewBox="0 0 131.7319166783831 94.38523926956314" height="94.38523926956314" width="131.7319166783831"><g><svg xmlns="http://www.w3.org/2000/svg" xmlns:xlink="http://www.w3.org/1999/xlink" version="1.1" x="0" y="0" viewBox="1.5 15.2 97 69.5" enable-background="new 0 0 100 100" xml:space="preserve" height="94.38523926956314" width="131.7319166783831" class="icon-icon-0" data-fill-palette-color="quaternary" id="icon-0"><path d="M7.2 84.7h85.5c3.2 0 5.8-2.6 5.8-5.8v-2.5c0-0.5-0.2-1-0.5-1.4l-4.3-5.3c-0.7-0.9-1.1-1.9-1.1-3v-5-3.2-9.2l0 0V23.7c0-4.7-3.8-8.5-8.5-8.5H52.4 15.9c-4.7 0-8.5 3.8-8.5 8.5v34.8 1.9 6.2c0 1.1-0.4 2.2-1.1 3L2 75.1c-0.3 0.4-0.5 0.9-0.5 1.4V79C1.5 82.2 4.1 84.7 7.2 84.7zM59.2 76.4c0 1.6-1.3 2.9-2.9 2.9H43.8c-1.6 0-2.9-1.3-2.9-2.9v-0.6h18.4V76.4zM15.9 60.8v-2.2V23.7c0 0 0 0 0 0h40.3 27.9c0 0 0 0 0 0v34.9 2.2 0.6h0v0.4 5.5H15.9V60.8zM54.9 32.9l3.9 2.2-13.7 24-3.9-2.2L54.9 32.9zM38.5 38l-8 8 8 8-3.2 3.2-8-8L24.2 46l3.2-3.2 8-8L38.5 38zM72.6 42.8l3.2 3.2-3.2 3.2-8 8L61.5 54l8-8-8-8 3.2-3.2L72.6 42.8z" fill="#1d366f" data-fill-palette-color="quaternary"></path></svg></g></svg></g><g></g></svg></g></svg></g></svg></g></svg></g><defs></defs></svg><rect width="342.85155851775386" height="342.85155851775386" fill="none" stroke="none" visibility="hidden"></rect></g></svg></g></svg>